<svg width="20" height="20" viewBox="0 0 20 20" fill="none" xmlns="http://www.w3.org/2000/svg">
<g id="inboxes" clip-path="url(#clip0_5627_7821)">
<path id="Vector" fill-rule="evenodd" clip-rule="evenodd" d="M6.22733 1.25C6.13365 1.25013 6.0412 1.27132 5.95682 1.312C5.87244 1.35268 5.79828 1.4118 5.73983 1.485L1.92733 6.25H7.50233C7.66809 6.25 7.82706 6.31585 7.94427 6.43306C8.06148 6.55027 8.12733 6.70924 8.12733 6.875C8.12733 7.37228 8.32487 7.84919 8.6765 8.20083C9.02813 8.55246 9.50504 8.75 10.0023 8.75C10.4996 8.75 10.9765 8.55246 11.3282 8.20083C11.6798 7.84919 11.8773 7.37228 11.8773 6.875C11.8773 6.70924 11.9432 6.55027 12.0604 6.43306C12.1776 6.31585 12.3366 6.25 12.5023 6.25H18.0773L14.2648 1.485C14.2064 1.4118 14.1322 1.35268 14.0478 1.312C13.9634 1.27132 13.871 1.25013 13.7773 1.25H6.22733ZM18.6698 7.5H13.0648C12.9214 8.20643 12.5381 8.84155 11.98 9.29774C11.4219 9.75393 10.7232 10.0031 10.0023 10.0031C9.28148 10.0031 8.5828 9.75393 8.02466 9.29774C7.46653 8.84155 7.08327 8.20643 6.93983 7.5H1.33483L1.73483 10.7025C1.75376 10.8541 1.82755 10.9934 1.94224 11.0943C2.05693 11.1952 2.20459 11.2506 2.35733 11.25H17.6498C17.8021 11.25 17.9492 11.1943 18.0634 11.0935C18.1775 10.9927 18.2509 10.8536 18.2698 10.7025L18.6686 7.5H18.6698ZM4.76358 0.70375C4.93932 0.48405 5.16226 0.306716 5.41586 0.184892C5.66946 0.0630675 5.94723 -0.000124099 6.22858 1.82968e-07H13.7761C14.0574 -0.000124099 14.3352 0.0630675 14.5888 0.184892C14.8424 0.306716 15.0653 0.48405 15.2411 0.70375L19.8661 6.485C19.918 6.55023 19.9564 6.62519 19.979 6.70548C20.0015 6.78577 20.0077 6.86976 19.9973 6.9525L19.5098 10.8575C19.4531 11.3111 19.2327 11.7284 18.8899 12.0309C18.5472 12.3333 18.1057 12.5002 17.6486 12.5H2.35608C1.89894 12.5002 1.45748 12.3333 1.11472 12.0309C0.77196 11.7284 0.551511 11.3111 0.494826 10.8575L0.00732559 6.9525C-0.00291973 6.86968 0.00352612 6.78564 0.0262829 6.70535C0.0490396 6.62505 0.0876464 6.55013 0.139826 6.485L4.76483 0.70375H4.76358ZM0.158576 13.9625C0.217144 13.8958 0.289239 13.8424 0.370062 13.8058C0.450886 13.7691 0.538585 13.7501 0.627326 13.75H7.50233C7.66809 13.75 7.82706 13.8158 7.94427 13.9331C8.06148 14.0503 8.12733 14.2092 8.12733 14.375C8.12733 14.8723 8.32487 15.3492 8.6765 15.7008C9.02813 16.0525 9.50504 16.25 10.0023 16.25C10.4996 16.25 10.9765 16.0525 11.3282 15.7008C11.6798 15.3492 11.8773 14.8723 11.8773 14.375C11.8773 14.2092 11.9432 14.0503 12.0604 13.9331C12.1776 13.8158 12.3366 13.75 12.5023 13.75H19.3773C19.4659 13.75 19.5535 13.7689 19.6343 13.8053C19.715 13.8418 19.7871 13.895 19.8457 13.9614C19.9044 14.0279 19.9482 14.106 19.9743 14.1907C20.0005 14.2753 20.0083 14.3646 19.9973 14.4525L19.5098 18.3575C19.4531 18.8111 19.2327 19.2284 18.8899 19.5309C18.5472 19.8333 18.1057 20.0002 17.6486 20H2.35608C1.89894 20.0002 1.45748 19.8333 1.11472 19.5309C0.77196 19.2284 0.551511 18.8111 0.494826 18.3575L0.00732559 14.4525C-0.00373156 14.3646 0.00403586 14.2753 0.0301125 14.1906C0.056189 14.1059 0.0999786 14.0277 0.158576 13.9612V13.9625ZM1.33483 15L1.73483 18.2025C1.75374 18.3538 1.82734 18.4931 1.94177 18.5939C2.0562 18.6947 2.20355 18.7503 2.35608 18.75H17.6486C17.8009 18.75 17.9479 18.6943 18.0621 18.5935C18.1763 18.4927 18.2497 18.3536 18.2686 18.2025L18.6686 15H13.0648C12.9214 15.7064 12.5381 16.3415 11.98 16.7977C11.4219 17.2539 10.7232 17.5031 10.0023 17.5031C9.28148 17.5031 8.5828 17.2539 8.02466 16.7977C7.46653 16.3415 7.08327 15.7064 6.93983 15H1.33483Z" fill="#3FADBE"/>
</g>
<defs>
<clipPath id="clip0_5627_7821">
<rect width="20" height="20" fill="white"/>
</clipPath>
</defs>
</svg>
