<svg width="19" height="20" viewBox="0 0 19 20" fill="none" xmlns="http://www.w3.org/2000/svg">
<g id="dice-6" clip-path="url(#clip0_5627_7830)">
<path id="Vector" fill-rule="evenodd" clip-rule="evenodd" d="M15.4375 1.25H3.5625C2.93261 1.25 2.32852 1.51339 1.88312 1.98223C1.43772 2.45107 1.1875 3.08696 1.1875 3.75V16.25C1.1875 16.913 1.43772 17.5489 1.88312 18.0178C2.32852 18.4866 2.93261 18.75 3.5625 18.75H15.4375C16.0674 18.75 16.6715 18.4866 17.1169 18.0178C17.5623 17.5489 17.8125 16.913 17.8125 16.25V3.75C17.8125 3.08696 17.5623 2.45107 17.1169 1.98223C16.6715 1.51339 16.0674 1.25 15.4375 1.25ZM3.5625 0C2.61767 0 1.71153 0.395088 1.04343 1.09835C0.375334 1.80161 0 2.75544 0 3.75L0 16.25C0 17.2446 0.375334 18.1984 1.04343 18.9017C1.71153 19.6049 2.61767 20 3.5625 20H15.4375C16.3823 20 17.2885 19.6049 17.9566 18.9017C18.6247 18.1984 19 17.2446 19 16.25V3.75C19 2.75544 18.6247 1.80161 17.9566 1.09835C17.2885 0.395088 16.3823 0 15.4375 0L3.5625 0Z" fill="#3FADBE"/>
<path id="Vector_2" d="M4.75 6.875C5.73376 6.875 6.53125 6.03553 6.53125 5C6.53125 3.96447 5.73376 3.125 4.75 3.125C3.76624 3.125 2.96875 3.96447 2.96875 5C2.96875 6.03553 3.76624 6.875 4.75 6.875Z" fill="#3FADBE"/>
<path id="Vector_3" d="M14.25 6.875C15.2338 6.875 16.0312 6.03553 16.0312 5C16.0312 3.96447 15.2338 3.125 14.25 3.125C13.2662 3.125 12.4688 3.96447 12.4688 5C12.4688 6.03553 13.2662 6.875 14.25 6.875Z" fill="#3FADBE"/>
<path id="Vector_4" d="M14.25 16.875C15.2338 16.875 16.0312 16.0355 16.0312 15C16.0312 13.9645 15.2338 13.125 14.25 13.125C13.2662 13.125 12.4688 13.9645 12.4688 15C12.4688 16.0355 13.2662 16.875 14.25 16.875Z" fill="#3FADBE"/>
<path id="Vector_5" d="M14.25 11.875C15.2338 11.875 16.0312 11.0355 16.0312 10C16.0312 8.96447 15.2338 8.125 14.25 8.125C13.2662 8.125 12.4688 8.96447 12.4688 10C12.4688 11.0355 13.2662 11.875 14.25 11.875Z" fill="#3FADBE"/>
<path id="Vector_6" d="M4.75 16.875C5.73376 16.875 6.53125 16.0355 6.53125 15C6.53125 13.9645 5.73376 13.125 4.75 13.125C3.76624 13.125 2.96875 13.9645 2.96875 15C2.96875 16.0355 3.76624 16.875 4.75 16.875Z" fill="#3FADBE"/>
<path id="Vector_7" d="M4.75 11.875C5.73376 11.875 6.53125 11.0355 6.53125 10C6.53125 8.96447 5.73376 8.125 4.75 8.125C3.76624 8.125 2.96875 8.96447 2.96875 10C2.96875 11.0355 3.76624 11.875 4.75 11.875Z" fill="#3FADBE"/>
</g>
<defs>
<clipPath id="clip0_5627_7830">
<rect width="19" height="20" fill="white"/>
</clipPath>
</defs>
</svg>
