<svg width="20" height="20" viewBox="0 0 20 20" fill="none" xmlns="http://www.w3.org/2000/svg">
<g id="tree">
<path id="Vector" fill-rule="evenodd" clip-rule="evenodd" d="M9.99998 0C10.1029 5.3188e-05 10.2042 0.0255252 10.2949 0.0741537C10.3857 0.122782 10.463 0.193062 10.52 0.27875L14.27 5.90375C14.3326 5.99787 14.3685 6.10721 14.3739 6.22014C14.3793 6.33306 14.354 6.44533 14.3007 6.545C14.2473 6.64467 14.1679 6.72799 14.0709 6.78611C13.974 6.84422 13.863 6.87494 13.75 6.875H13.6275L16.155 10.9187C16.2141 11.0134 16.2468 11.1221 16.2498 11.2336C16.2527 11.3451 16.2257 11.4554 16.1716 11.553C16.1176 11.6506 16.0383 11.7319 15.9422 11.7885C15.8461 11.8451 15.7365 11.875 15.625 11.875H15.3862L17.4337 15.97C17.4815 16.0653 17.5041 16.1712 17.4993 16.2777C17.4946 16.3842 17.4628 16.4877 17.4068 16.5783C17.3508 16.669 17.2725 16.7439 17.1794 16.7958C17.0864 16.8477 16.9816 16.875 16.875 16.875H3.12498C3.0184 16.875 2.91359 16.8477 2.82051 16.7958C2.72744 16.7439 2.64918 16.669 2.59319 16.5783C2.5372 16.4877 2.50533 16.3842 2.50061 16.2777C2.49589 16.1712 2.51848 16.0653 2.56623 15.97L4.61248 11.875H4.37498C4.26341 11.875 4.15388 11.8451 4.05775 11.7885C3.96163 11.7319 3.88241 11.6506 3.82833 11.553C3.77424 11.4554 3.74726 11.3451 3.75019 11.2336C3.75312 11.1221 3.78585 11.0134 3.84498 10.9187L6.37248 6.875H6.24998C6.13693 6.87494 6.02601 6.84422 5.92903 6.78611C5.83206 6.72799 5.75266 6.64467 5.6993 6.545C5.64594 6.44533 5.62061 6.33306 5.62602 6.22014C5.63142 6.10721 5.66735 5.99787 5.72998 5.90375L9.47998 0.27875C9.537 0.193062 9.6143 0.122782 9.70502 0.0741537C9.79573 0.0255252 9.89705 5.3188e-05 9.99998 0V0ZM7.41748 5.625H7.49998C7.61155 5.625 7.72108 5.65486 7.8172 5.71149C7.91333 5.76811 7.99255 5.84944 8.04663 5.94702C8.10072 6.0446 8.12769 6.15488 8.12477 6.26641C8.12184 6.37793 8.08911 6.48664 8.02998 6.58125L5.50248 10.625H5.62498C5.73156 10.625 5.83637 10.6523 5.92945 10.7042C6.02252 10.7561 6.10077 10.831 6.15676 10.9217C6.21276 11.0123 6.24463 11.1158 6.24935 11.2223C6.25406 11.3288 6.23148 11.4347 6.18373 11.53L4.13748 15.625H15.865L13.8175 11.53C13.7698 11.4348 13.7472 11.329 13.7519 11.2226C13.7565 11.1163 13.7883 11.0128 13.8441 10.9222C13.9 10.8315 13.978 10.7567 14.0709 10.7046C14.1639 10.6526 14.2685 10.6252 14.375 10.625H14.4975L11.97 6.58125C11.9109 6.48664 11.8781 6.37793 11.8752 6.26641C11.8723 6.15488 11.8992 6.0446 11.9533 5.94702C12.0074 5.84944 12.0866 5.76811 12.1828 5.71149C12.2789 5.65486 12.3884 5.625 12.5 5.625H12.5825L9.99998 1.75125L7.41748 5.625Z" fill="#3FADBE"/>
<path id="Vector_2" d="M8.75 16.875H11.25V20H8.75V16.875Z" fill="#3FADBE"/>
</g>
</svg>
