<svg width="19" height="20" viewBox="0 0 19 20" fill="none" xmlns="http://www.w3.org/2000/svg">
<g id="file-music">
<path id="Vector" fill-rule="evenodd" clip-rule="evenodd" d="M4.75 0H14.25C14.8799 0 15.484 0.263392 15.9294 0.732233C16.3748 1.20107 16.625 1.83696 16.625 2.5V17.5C16.625 18.163 16.3748 18.7989 15.9294 19.2678C15.484 19.7366 14.8799 20 14.25 20H4.75C4.12011 20 3.51602 19.7366 3.07062 19.2678C2.62522 18.7989 2.375 18.163 2.375 17.5V2.5C2.375 1.83696 2.62522 1.20107 3.07062 0.732233C3.51602 0.263392 4.12011 0 4.75 0V0ZM4.75 1.25C4.43506 1.25 4.13301 1.3817 3.91031 1.61612C3.68761 1.85054 3.5625 2.16848 3.5625 2.5V17.5C3.5625 17.8315 3.68761 18.1495 3.91031 18.3839C4.13301 18.6183 4.43506 18.75 4.75 18.75H14.25C14.5649 18.75 14.867 18.6183 15.0897 18.3839C15.3124 18.1495 15.4375 17.8315 15.4375 17.5V2.5C15.4375 2.16848 15.3124 1.85054 15.0897 1.61612C14.867 1.3817 14.5649 1.25 14.25 1.25H4.75Z" fill="#3FADBE"/>
<path id="Vector_2" fill-rule="evenodd" clip-rule="evenodd" d="M12.236 3.91255C12.4082 3.87632 12.5859 3.88074 12.7563 3.92551C12.9267 3.97028 13.0855 4.05427 13.2214 4.17144C13.3572 4.2886 13.4667 4.43603 13.5419 4.60309C13.6171 4.77015 13.6561 4.95269 13.6562 5.13755V7.38755L10.6875 8.01255V14.375C10.6875 14.9938 10.3301 15.4788 9.90138 15.7788C9.46913 16.0825 8.90506 16.25 8.3125 16.25C7.71875 16.25 7.15588 16.0825 6.72363 15.7788C6.29613 15.4788 5.9375 14.9938 5.9375 14.375C5.9375 13.7563 6.29494 13.2713 6.72363 12.9713C7.15588 12.6676 7.71994 12.5001 8.3125 12.5001C8.73525 12.5001 9.14375 12.5851 9.5 12.7451V5.51255C9.50017 5.22369 9.59537 4.9438 9.76943 4.72047C9.94349 4.49714 10.1857 4.34417 10.4548 4.28755L12.236 3.91255Z" fill="#3FADBE"/>
</g>
</svg>
