<svg width="19" height="20" viewBox="0 0 19 20" fill="none" xmlns="http://www.w3.org/2000/svg">
<g id="file-person" clip-path="url(#clip0_5627_7836)">
<path id="Vector" fill-rule="evenodd" clip-rule="evenodd" d="M14.25 1.25H4.75C4.43506 1.25 4.13301 1.3817 3.91031 1.61612C3.68761 1.85054 3.5625 2.16848 3.5625 2.5V15.9438C3.5625 15.9438 4.75 13.75 9.5 13.75C14.25 13.75 15.4375 15.9438 15.4375 15.9438V2.5C15.4375 2.16848 15.3124 1.85054 15.0897 1.61612C14.867 1.3817 14.5649 1.25 14.25 1.25ZM4.75 0C4.12011 0 3.51602 0.263392 3.07062 0.732233C2.62522 1.20107 2.375 1.83696 2.375 2.5V17.5C2.375 18.163 2.62522 18.7989 3.07062 19.2678C3.51602 19.7366 4.12011 20 4.75 20H14.25C14.8799 20 15.484 19.7366 15.9294 19.2678C16.3748 18.7989 16.625 18.163 16.625 17.5V2.5C16.625 1.83696 16.3748 1.20107 15.9294 0.732233C15.484 0.263392 14.8799 0 14.25 0L4.75 0Z" fill="#3FADBE"/>
<path id="Vector_2" fill-rule="evenodd" clip-rule="evenodd" d="M9.5 12.5C9.96783 12.5 10.4311 12.403 10.8633 12.2145C11.2955 12.0261 11.6883 11.7499 12.0191 11.4017C12.3499 11.0534 12.6123 10.64 12.7913 10.1851C12.9704 9.73009 13.0625 9.24246 13.0625 8.75C13.0625 8.25754 12.9704 7.76991 12.7913 7.31494C12.6123 6.85997 12.3499 6.44657 12.0191 6.09835C11.6883 5.75013 11.2955 5.47391 10.8633 5.28545C10.4311 5.097 9.96783 5 9.5 5C8.55517 5 7.64903 5.39509 6.98093 6.09835C6.31283 6.80161 5.9375 7.75544 5.9375 8.75C5.9375 9.74456 6.31283 10.6984 6.98093 11.4017C7.64903 12.1049 8.55517 12.5 9.5 12.5Z" fill="#3FADBE"/>
</g>
<defs>
<clipPath id="clip0_5627_7836">
<rect width="19" height="20" fill="white"/>
</clipPath>
</defs>
</svg>
