<svg width="19" height="20" viewBox="0 0 19 20" fill="none" xmlns="http://www.w3.org/2000/svg">
<g id="bug">
<path id="Vector" fill-rule="evenodd" clip-rule="evenodd" d="M5.17156 0.652499C5.32211 0.604599 5.48455 0.621525 5.62325 0.699564C5.76195 0.777602 5.86557 0.910377 5.91138 1.06875L6.25694 2.26375C7.22108 1.60055 8.34825 1.24821 9.5 1.25C10.6958 1.25 11.8109 1.6225 12.7431 2.26375L13.0874 1.06875C13.1096 0.989672 13.1464 0.915996 13.1958 0.851966C13.2451 0.787935 13.306 0.734816 13.375 0.695668C13.4439 0.65652 13.5195 0.632118 13.5975 0.623866C13.6754 0.615614 13.7541 0.623676 13.8291 0.647587C13.904 0.671499 13.9738 0.710788 14.0342 0.76319C14.0947 0.815592 14.1447 0.880072 14.1814 0.952915C14.2181 1.02576 14.2408 1.10552 14.2481 1.18762C14.2553 1.26971 14.2471 1.35251 14.2239 1.43125L13.737 3.12125C14.8286 4.28881 15.4395 5.86187 15.4375 7.5H16.0312C16.1887 7.5 16.3397 7.43415 16.4511 7.31694C16.5624 7.19973 16.625 7.04076 16.625 6.875V6.25C16.625 6.08424 16.6876 5.92527 16.7989 5.80806C16.9103 5.69085 17.0613 5.625 17.2188 5.625C17.3762 5.625 17.5272 5.69085 17.6386 5.80806C17.7499 5.92527 17.8125 6.08424 17.8125 6.25V6.875C17.8125 7.37228 17.6248 7.84919 17.2908 8.20082C16.9567 8.55246 16.5037 8.75 16.0312 8.75H15.4375V10H17.2188C17.3762 10 17.5272 10.0658 17.6386 10.1831C17.7499 10.3003 17.8125 10.4592 17.8125 10.625C17.8125 10.7908 17.7499 10.9497 17.6386 11.0669C17.5272 11.1842 17.3762 11.25 17.2188 11.25H15.4375V12.5H16.0312C16.5037 12.5 16.9567 12.6975 17.2908 13.0492C17.6248 13.4008 17.8125 13.8777 17.8125 14.375V15C17.8125 15.1658 17.7499 15.3247 17.6386 15.4419C17.5272 15.5592 17.3762 15.625 17.2188 15.625C17.0613 15.625 16.9103 15.5592 16.7989 15.4419C16.6876 15.3247 16.625 15.1658 16.625 15V14.375C16.625 14.2092 16.5624 14.0503 16.4511 13.9331C16.3397 13.8158 16.1887 13.75 16.0312 13.75H15.4375C15.4375 15.4076 14.8119 16.9973 13.6984 18.1694C12.5849 19.3415 11.0747 20 9.5 20C7.92528 20 6.41505 19.3415 5.30155 18.1694C4.18806 16.9973 3.5625 15.4076 3.5625 13.75H2.96875C2.81128 13.75 2.66026 13.8158 2.54891 13.9331C2.43756 14.0503 2.375 14.2092 2.375 14.375V15C2.375 15.1658 2.31244 15.3247 2.20109 15.4419C2.08974 15.5592 1.93872 15.625 1.78125 15.625C1.62378 15.625 1.47276 15.5592 1.36141 15.4419C1.25006 15.3247 1.1875 15.1658 1.1875 15V14.375C1.1875 13.8777 1.37517 13.4008 1.70922 13.0492C2.04327 12.6975 2.49633 12.5 2.96875 12.5H3.5625V11.25H1.78125C1.62378 11.25 1.47276 11.1842 1.36141 11.0669C1.25006 10.9497 1.1875 10.7908 1.1875 10.625C1.1875 10.4592 1.25006 10.3003 1.36141 10.1831C1.47276 10.0658 1.62378 10 1.78125 10H3.5625V8.75H2.96875C2.49633 8.75 2.04327 8.55246 1.70922 8.20082C1.37517 7.84919 1.1875 7.37228 1.1875 6.875V6.25C1.1875 6.08424 1.25006 5.92527 1.36141 5.80806C1.47276 5.69085 1.62378 5.625 1.78125 5.625C1.93872 5.625 2.08974 5.69085 2.20109 5.80806C2.31244 5.92527 2.375 6.08424 2.375 6.25V6.875C2.375 7.04076 2.43756 7.19973 2.54891 7.31694C2.66026 7.43415 2.81128 7.5 2.96875 7.5H3.5625C3.5625 5.795 4.21206 4.24875 5.263 3.12125L4.77612 1.43125C4.73062 1.27278 4.7467 1.10179 4.82084 0.955786C4.89497 0.809786 5.02111 0.700711 5.17156 0.652499ZM4.75 8.75V13.75C4.7496 14.9681 5.17168 16.1445 5.93696 17.0583C6.70225 17.972 7.7581 18.5602 8.90625 18.7125V8.75H4.75ZM10.0938 8.75V18.7125C11.2419 18.5602 12.2978 17.972 13.063 17.0583C13.8283 16.1445 14.2504 14.9681 14.25 13.75V8.75H10.0938ZM14.25 7.5H4.75C4.7491 6.7963 4.88969 6.10037 5.1625 5.45793C5.43532 4.8155 5.83421 4.2411 6.33294 3.7725C7.203 2.951 8.33121 2.49769 9.5 2.5C10.7172 2.5 11.8263 2.98125 12.6659 3.7725C13.1649 4.24094 13.564 4.81527 13.8371 5.45772C14.1101 6.10018 14.2508 6.79619 14.25 7.5Z" fill="#3FADBE"/>
</g>
</svg>
