<svg width="20" height="20" viewBox="0 0 20 20" fill="none" xmlns="http://www.w3.org/2000/svg">
<g id="collection-play">
<path id="Vector" fill-rule="evenodd" clip-rule="evenodd" d="M18.125 16.875H1.875C1.70924 16.875 1.55027 16.8092 1.43306 16.6919C1.31585 16.5747 1.25 16.4158 1.25 16.25V7.5C1.25 7.33424 1.31585 7.17527 1.43306 7.05806C1.55027 6.94085 1.70924 6.875 1.875 6.875H18.125C18.2908 6.875 18.4497 6.94085 18.5669 7.05806C18.6842 7.17527 18.75 7.33424 18.75 7.5V16.25C18.75 16.4158 18.6842 16.5747 18.5669 16.6919C18.4497 16.8092 18.2908 16.875 18.125 16.875ZM1.875 18.125C1.37772 18.125 0.900805 17.9275 0.549175 17.5758C0.197544 17.2242 0 16.7473 0 16.25L0 7.5C0 7.00272 0.197544 6.52581 0.549175 6.17417C0.900805 5.82254 1.37772 5.625 1.875 5.625H18.125C18.6223 5.625 19.0992 5.82254 19.4508 6.17417C19.8025 6.52581 20 7.00272 20 7.5V16.25C20 16.7473 19.8025 17.2242 19.4508 17.5758C19.0992 17.9275 18.6223 18.125 18.125 18.125H1.875ZM2.5 3.75C2.5 3.91576 2.56585 4.07473 2.68306 4.19194C2.80027 4.30915 2.95924 4.375 3.125 4.375H16.875C17.0408 4.375 17.1997 4.30915 17.3169 4.19194C17.4342 4.07473 17.5 3.91576 17.5 3.75C17.5 3.58424 17.4342 3.42527 17.3169 3.30806C17.1997 3.19085 17.0408 3.125 16.875 3.125H3.125C2.95924 3.125 2.80027 3.19085 2.68306 3.30806C2.56585 3.42527 2.5 3.58424 2.5 3.75ZM5 1.25C5 1.41576 5.06585 1.57473 5.18306 1.69194C5.30027 1.80915 5.45924 1.875 5.625 1.875H14.375C14.5408 1.875 14.6997 1.80915 14.8169 1.69194C14.9342 1.57473 15 1.41576 15 1.25C15 1.08424 14.9342 0.925268 14.8169 0.808058C14.6997 0.690848 14.5408 0.625 14.375 0.625H5.625C5.45924 0.625 5.30027 0.690848 5.18306 0.808058C5.06585 0.925268 5 1.08424 5 1.25Z" fill="#3FADBE"/>
<path id="Vector_2" fill-rule="evenodd" clip-rule="evenodd" d="M7.8225 8.20376C7.91999 8.14971 8.03016 8.12271 8.14159 8.12557C8.25302 8.12843 8.36166 8.16104 8.45625 8.22001L13.4563 11.345C13.5461 11.4012 13.6203 11.4793 13.6717 11.572C13.723 11.6647 13.75 11.769 13.75 11.875C13.75 11.981 13.723 12.0853 13.6717 12.178C13.6203 12.2707 13.5461 12.3488 13.4563 12.405L8.45625 15.53C8.36164 15.5891 8.25293 15.6219 8.14141 15.6248C8.02988 15.6277 7.9196 15.6008 7.82202 15.5467C7.72444 15.4926 7.64311 15.4134 7.58649 15.3172C7.52986 15.2211 7.5 15.1116 7.5 15V8.75001C7.50012 8.63847 7.53009 8.52899 7.5868 8.43293C7.64351 8.33688 7.72489 8.25775 7.8225 8.20376Z" fill="#3FADBE"/>
</g>
</svg>
