<svg width="19" height="20" viewBox="0 0 19 20" fill="none" xmlns="http://www.w3.org/2000/svg">
<g id="camera-reels" clip-path="url(#clip0_5627_7829)">
<path id="Vector" fill-rule="evenodd" clip-rule="evenodd" d="M0 10C0 9.33696 0.250223 8.70107 0.695621 8.23223C1.14102 7.76339 1.74511 7.5 2.375 7.5H11.2812C11.8573 7.49993 12.4137 7.72024 12.8469 8.11991C13.2802 8.51958 13.5606 9.07136 13.6361 9.6725L17.3292 7.945C17.51 7.86021 17.708 7.82433 17.9053 7.84061C18.1026 7.85688 18.2929 7.92481 18.4589 8.0382C18.6249 8.1516 18.7614 8.30687 18.8559 8.4899C18.9504 8.67294 18.9999 8.87793 19 9.08625V18.4137C18.9998 18.6219 18.9503 18.8267 18.8558 19.0096C18.7614 19.1925 18.6251 19.3477 18.4592 19.461C18.2934 19.5744 18.1033 19.6424 17.9061 19.6588C17.709 19.6752 17.5111 19.6395 17.3304 19.555L13.6361 17.8275C13.5606 18.4286 13.2802 18.9804 12.8469 19.3801C12.4137 19.7798 11.8573 20.0001 11.2812 20H2.375C1.74511 20 1.14102 19.7366 0.695621 19.2678C0.250223 18.7989 0 18.163 0 17.5V10ZM13.6562 16.4688L17.8125 18.4137V9.08625L13.6562 11.0312V16.4688ZM2.375 8.75C2.06006 8.75 1.75801 8.8817 1.53531 9.11612C1.31261 9.35054 1.1875 9.66848 1.1875 10V17.5C1.1875 17.8315 1.31261 18.1495 1.53531 18.3839C1.75801 18.6183 2.06006 18.75 2.375 18.75H11.2812C11.5962 18.75 11.8982 18.6183 12.1209 18.3839C12.3436 18.1495 12.4688 17.8315 12.4688 17.5V10C12.4688 9.66848 12.3436 9.35054 12.1209 9.11612C11.8982 8.8817 11.5962 8.75 11.2812 8.75H2.375Z" fill="#3FADBE"/>
<path id="Vector_2" fill-rule="evenodd" clip-rule="evenodd" d="M3.5625 6.25C4.19239 6.25 4.79648 5.98661 5.24188 5.51777C5.68728 5.04893 5.9375 4.41304 5.9375 3.75C5.9375 3.08696 5.68728 2.45107 5.24188 1.98223C4.79648 1.51339 4.19239 1.25 3.5625 1.25C2.93261 1.25 2.32852 1.51339 1.88312 1.98223C1.43772 2.45107 1.1875 3.08696 1.1875 3.75C1.1875 4.41304 1.43772 5.04893 1.88312 5.51777C2.32852 5.98661 2.93261 6.25 3.5625 6.25ZM3.5625 7.5C4.50733 7.5 5.41347 7.10491 6.08157 6.40165C6.74967 5.69839 7.125 4.74456 7.125 3.75C7.125 2.75544 6.74967 1.80161 6.08157 1.09835C5.41347 0.395088 4.50733 0 3.5625 0C2.61767 0 1.71153 0.395088 1.04343 1.09835C0.375334 1.80161 0 2.75544 0 3.75C0 4.74456 0.375334 5.69839 1.04343 6.40165C1.71153 7.10491 2.61767 7.5 3.5625 7.5Z" fill="#3FADBE"/>
<path id="Vector_3" fill-rule="evenodd" clip-rule="evenodd" d="M10.6875 6.25C11.3174 6.25 11.9215 5.98661 12.3669 5.51777C12.8123 5.04893 13.0625 4.41304 13.0625 3.75C13.0625 3.08696 12.8123 2.45107 12.3669 1.98223C11.9215 1.51339 11.3174 1.25 10.6875 1.25C10.0576 1.25 9.45352 1.51339 9.00812 1.98223C8.56272 2.45107 8.3125 3.08696 8.3125 3.75C8.3125 4.41304 8.56272 5.04893 9.00812 5.51777C9.45352 5.98661 10.0576 6.25 10.6875 6.25ZM10.6875 7.5C11.6323 7.5 12.5385 7.10491 13.2066 6.40165C13.8747 5.69839 14.25 4.74456 14.25 3.75C14.25 2.75544 13.8747 1.80161 13.2066 1.09835C12.5385 0.395088 11.6323 0 10.6875 0C9.74267 0 8.83653 0.395088 8.16843 1.09835C7.50033 1.80161 7.125 2.75544 7.125 3.75C7.125 4.74456 7.50033 5.69839 8.16843 6.40165C8.83653 7.10491 9.74267 7.5 10.6875 7.5Z" fill="#3FADBE"/>
</g>
<defs>
<clipPath id="clip0_5627_7829">
<rect width="19" height="20" fill="white"/>
</clipPath>
</defs>
</svg>
