<svg width="21" height="20" viewBox="0 0 21 20" fill="none" xmlns="http://www.w3.org/2000/svg">
<g id="image">
<path id="Vector" fill-rule="evenodd" clip-rule="evenodd" d="M17.2966 2.5H2.47303C2.14541 2.5 1.83121 2.6317 1.59954 2.86612C1.36788 3.10054 1.23774 3.41848 1.23774 3.75V15L4.50632 12.0575C4.60729 11.9557 4.73994 11.8924 4.88178 11.8783C5.02362 11.8641 5.16592 11.9001 5.28456 11.98L8.57044 14.1963L13.1534 9.55875C13.245 9.46597 13.3631 9.4047 13.491 9.38361C13.6189 9.36252 13.7502 9.38269 13.8661 9.44125L18.5319 11.875V3.75C18.5319 3.41848 18.4017 3.10054 18.17 2.86612C17.9384 2.6317 17.6242 2.5 17.2966 2.5ZM2.47303 1.25C1.81779 1.25 1.18939 1.51339 0.72606 1.98223C0.262735 2.45107 0.00244141 3.08696 0.00244141 3.75V16.25C0.00244141 16.913 0.262735 17.5489 0.72606 18.0178C1.18939 18.4866 1.81779 18.75 2.47303 18.75H17.2966C17.621 18.75 17.9423 18.6853 18.242 18.5597C18.5418 18.4341 18.8141 18.2499 19.0435 18.0178C19.2729 17.7856 19.4549 17.51 19.5791 17.2067C19.7032 16.9034 19.7671 16.5783 19.7671 16.25V3.75C19.7671 3.08696 19.5069 2.45107 19.0435 1.98223C18.5802 1.51339 17.9518 1.25 17.2966 1.25H2.47303ZM7.41421 6.875C7.41421 7.12123 7.36628 7.36505 7.27316 7.59253C7.18004 7.82002 7.04355 8.02672 6.87149 8.20083C6.69943 8.37494 6.49516 8.51305 6.27035 8.60727C6.04555 8.7015 5.8046 8.75 5.56126 8.75C5.31793 8.75 5.07698 8.7015 4.85217 8.60727C4.62737 8.51305 4.4231 8.37494 4.25104 8.20083C4.07898 8.02672 3.94249 7.82002 3.84937 7.59253C3.75625 7.36505 3.70832 7.12123 3.70832 6.875C3.70832 6.37772 3.90354 5.90081 4.25104 5.54917C4.59853 5.19754 5.06983 5 5.56126 5C6.0527 5 6.524 5.19754 6.87149 5.54917C7.21899 5.90081 7.41421 6.37772 7.41421 6.875Z" fill="#3FADBE"/>
</g>
</svg>
