<svg width="36" height="36" viewBox="0 0 36 36" fill="none" xmlns="http://www.w3.org/2000/svg">
<path fill-rule="evenodd" clip-rule="evenodd" d="M5.625 25.875C5.625 25.5766 5.74353 25.2905 5.95451 25.0795C6.16548 24.8685 6.45163 24.75 6.75 24.75H29.25C29.5484 24.75 29.8345 24.8685 30.0455 25.0795C30.2565 25.2905 30.375 25.5766 30.375 25.875C30.375 26.1734 30.2565 26.4595 30.0455 26.6705C29.8345 26.8815 29.5484 27 29.25 27H6.75C6.45163 27 6.16548 26.8815 5.95451 26.6705C5.74353 26.4595 5.625 26.1734 5.625 25.875ZM5.625 16.875C5.625 16.5766 5.74353 16.2905 5.95451 16.0795C6.16548 15.8685 6.45163 15.75 6.75 15.75H29.25C29.5484 15.75 29.8345 15.8685 30.0455 16.0795C30.2565 16.2905 30.375 16.5766 30.375 16.875C30.375 17.1734 30.2565 17.4595 30.0455 17.6705C29.8345 17.8815 29.5484 18 29.25 18H6.75C6.45163 18 6.16548 17.8815 5.95451 17.6705C5.74353 17.4595 5.625 17.1734 5.625 16.875ZM5.625 7.875C5.625 7.57663 5.74353 7.29048 5.95451 7.07951C6.16548 6.86853 6.45163 6.75 6.75 6.75H29.25C29.5484 6.75 29.8345 6.86853 30.0455 7.07951C30.2565 7.29048 30.375 7.57663 30.375 7.875C30.375 8.17337 30.2565 8.45952 30.0455 8.67049C29.8345 8.88147 29.5484 9 29.25 9H6.75C6.45163 9 6.16548 8.88147 5.95451 8.67049C5.74353 8.45952 5.625 8.17337 5.625 7.875Z" fill="#3FADBE"/>
</svg>
