<svg width="30" height="30" viewBox="0 0 30 30" fill="none" xmlns="http://www.w3.org/2000/svg">
<path fill-rule="evenodd" clip-rule="evenodd" d="M18.4272 7.5H4.10592C3.84546 7.49998 3.58785 7.55424 3.34951 7.6593C3.11118 7.76436 2.89734 7.91792 2.72165 8.1102C2.54595 8.30248 2.41224 8.52926 2.32904 8.77608C2.24584 9.0229 2.21498 9.28434 2.23842 9.54375L3.43279 22.6688C3.47489 23.1346 3.6896 23.5679 4.03478 23.8836C4.37995 24.1993 4.83066 24.3746 5.29842 24.375H16.8747V26.25H5.29842C4.36287 26.2496 3.46124 25.8996 2.77054 25.2685C2.07984 24.6375 1.64996 23.7711 1.56529 22.8394L0.37092 9.71438C0.291019 8.84584 0.517909 7.97676 1.01217 7.25813L0.93717 5.625C0.93717 4.63044 1.33226 3.67661 2.03552 2.97335C2.73878 2.27009 3.69261 1.875 4.68717 1.875H11.5722C12.5667 1.87521 13.5203 2.27044 14.2234 2.97375L15.7759 4.52625C16.479 5.22956 17.4327 5.62479 18.4272 5.625H25.8934C26.4145 5.62495 26.9299 5.7335 27.4067 5.94373C27.8835 6.15397 28.3113 6.46127 28.6627 6.84604C29.0141 7.23081 29.2815 7.68459 29.4478 8.17846C29.6141 8.67232 29.6756 9.19541 29.6284 9.71438L29.1484 15H27.2622L27.759 9.54375C27.7825 9.2845 27.7517 9.02321 27.6686 8.77652C27.5855 8.52983 27.4519 8.30315 27.2765 8.11089C27.101 7.91864 26.8874 7.76504 26.6492 7.65986C26.4111 7.55469 26.1537 7.50025 25.8934 7.5H18.4272ZM12.8959 4.29938L14.2253 5.625H4.10592C3.65592 5.625 3.22467 5.70375 2.82342 5.85L2.81217 5.5875C2.82199 5.09675 3.02386 4.62941 3.37443 4.28585C3.725 3.94229 4.19632 3.7499 4.68717 3.75H11.5722C12.0694 3.75011 12.5462 3.94772 12.8978 4.29938H12.8959Z" fill="#3FADBE"/>
<path fill-rule="evenodd" clip-rule="evenodd" d="M25.3125 18.75C25.5611 18.75 25.7996 18.8488 25.9754 19.0246C26.1512 19.2004 26.25 19.4389 26.25 19.6875V22.5H29.0625C29.3111 22.5 29.5496 22.5988 29.7254 22.7746C29.9012 22.9504 30 23.1889 30 23.4375C30 23.6861 29.9012 23.9246 29.7254 24.1004C29.5496 24.2762 29.3111 24.375 29.0625 24.375H26.25V27.1875C26.25 27.4361 26.1512 27.6746 25.9754 27.8504C25.7996 28.0262 25.5611 28.125 25.3125 28.125C25.0639 28.125 24.8254 28.0262 24.6496 27.8504C24.4738 27.6746 24.375 27.4361 24.375 27.1875V24.375H21.5625C21.3139 24.375 21.0754 24.2762 20.8996 24.1004C20.7238 23.9246 20.625 23.6861 20.625 23.4375C20.625 23.1889 20.7238 22.9504 20.8996 22.7746C21.0754 22.5988 21.3139 22.5 21.5625 22.5H24.375V19.6875C24.375 19.4389 24.4738 19.2004 24.6496 19.0246C24.8254 18.8488 25.0639 18.75 25.3125 18.75Z" fill="#3FADBE"/>
</svg>
