<svg width="247" height="61" viewBox="0 0 247 61" fill="none" xmlns="http://www.w3.org/2000/svg">
<g id="Group">
<g id="Group_2">
<path id="Vector" d="M48.979 19.7637C52.3433 17.7767 58.7347 21.2486 60.3559 18.4008C60.4635 20.1654 59.1579 21.0836 57.9815 21.184C55.6 21.3921 51.9559 19.1325 48.979 19.7637Z" fill="white"/>
<path id="Vector_2" d="M68.0816 23.5369C62.8379 23.5369 56.8267 29.2325 50.1483 27.7907C43.14 26.27 42.6092 18.6376 45.5933 15.6463C43.1185 15.2446 40.9019 16.2919 39.704 18.5443C43.4341 7.22486 63.3544 21.2773 68.8276 18.6806C69.4373 18.3937 69.8677 17.7911 69.6669 17.1312C66.611 7.13878 57.2714 -0.11343 46.2532 0.00134326C32.7889 0.137636 22.1079 11.0913 22.2944 24.5484C22.4737 37.7688 33.248 48.4283 46.5114 48.4283C59.7749 48.4283 69.5593 38.7156 70.6353 26.3345C70.7644 24.8353 69.5951 23.5298 68.0959 23.5298L68.0816 23.5369ZM47.3866 30.947C44.5531 29.7921 43.1974 27.224 43.0826 24.1682C43.7641 26.7793 45.8013 29.1967 49.5458 29.8638C56.0448 31.0187 61.7045 25.7104 66.8334 24.9142C60.6429 27.0734 53.8354 33.5867 47.3794 30.947H47.3866Z" fill="white"/>
<path id="Vector_3" d="M11.5352 20.0365L13.1922 25.6245C14.5623 25.5384 15.9037 25.1439 17.0729 24.4122C20.8389 22.0522 23.7584 18.236 25.8028 14.2979C21.7069 17.49 15.9969 20.4526 11.5423 20.0365H11.5352Z" fill="white"/>
<path id="Vector_4" d="M25.7952 13.6808C16.6349 13.9821 6.18338 9.3266 0 3.00693L3.94531 16.3206C5.09304 16.9446 6.33402 17.3822 7.63956 17.5831C13.8158 18.5228 20.4296 17.1383 26.2328 14.8214C25.2644 14.7711 26.7779 13.6521 25.8024 13.6808H25.7952Z" fill="white"/>
<path id="Vector_5" d="M17.6245 46.391C24.2813 55.0492 34.74 60.63 46.5042 60.63C55.9586 60.63 64.5666 57.029 71.0369 51.1254C56.1021 54.2673 39.9335 36.8003 17.6245 46.3982V46.391Z" fill="white"/>
<path id="Vector_6" d="M55.8666 23.6086C56.9085 23.6086 57.7531 22.7639 57.7531 21.722C57.7531 20.6801 56.9085 19.8354 55.8666 19.8354C54.8246 19.8354 53.98 20.6801 53.98 21.722C53.98 22.7639 54.8246 23.6086 55.8666 23.6086Z" fill="white"/>
</g>
<g id="Group_3">
<path id="Vector_7" d="M75.8657 22.8505C76.3397 21.5866 77.0155 20.5158 77.8932 19.6293C78.7709 18.7429 79.8154 18.0583 81.0442 17.5668C82.2642 17.0752 83.6422 16.8383 85.1694 16.8383C86.6966 16.8383 88.0746 17.084 89.3121 17.5668C90.5497 18.0495 91.6029 18.7429 92.4806 19.6293C93.3583 20.5158 94.0342 21.5954 94.5082 22.8505C94.9821 24.1144 95.2191 25.5187 95.2191 27.0635C95.2191 28.6083 94.9821 30.0126 94.5082 31.2589C94.0342 32.5053 93.3583 33.5761 92.4806 34.4625C91.6029 35.349 90.5497 36.0336 89.3121 36.5076C88.0746 36.9815 86.6966 37.2185 85.1694 37.2185C83.6422 37.2185 82.273 36.9815 81.0442 36.5076C79.8154 36.0336 78.7709 35.349 77.8932 34.4625C77.0155 33.5761 76.3397 32.5053 75.8657 31.2589C75.3918 30.0126 75.1548 28.6083 75.1548 27.0635C75.1548 25.5187 75.3918 24.1056 75.8657 22.8505ZM80.7018 29.328C80.8511 30.0652 81.1056 30.7323 81.4742 31.3116C81.8341 31.8996 82.3168 32.3648 82.9137 32.7159C83.5105 33.067 84.2653 33.2425 85.1606 33.2425C86.0559 33.2425 86.8195 33.067 87.4251 32.7159C88.0395 32.3648 88.5222 31.8996 88.8908 31.3116C89.2507 30.7235 89.5052 30.0652 89.6632 29.328C89.8124 28.5907 89.8914 27.8359 89.8914 27.0635C89.8914 26.2911 89.8124 25.5275 89.6632 24.7727C89.514 24.0266 89.2595 23.3596 88.8908 22.7891C88.531 22.2186 88.0395 21.7446 87.4251 21.3848C86.8107 21.0249 86.0559 20.8406 85.1606 20.8406C84.2653 20.8406 83.5105 21.0249 82.9137 21.3848C82.3168 21.7446 81.8341 22.2186 81.4742 22.7891C81.1144 23.3684 80.8511 24.0266 80.7018 24.7727C80.5526 25.5187 80.4737 26.2823 80.4737 27.0635C80.4737 27.8446 80.5526 28.5907 80.7018 29.328Z" fill="white"/>
<path id="Vector_8" d="M114.668 34.2609C114.045 35.3141 113.229 36.069 112.211 36.5254C111.202 36.9905 110.052 37.2188 108.779 37.2188C107.331 37.2188 106.058 36.9379 104.952 36.3762C103.855 35.8144 102.942 35.0508 102.231 34.0853C101.52 33.1199 100.985 32.014 100.616 30.7676C100.257 29.5213 100.072 28.2223 100.072 26.8706C100.072 25.519 100.257 24.3165 100.616 23.1053C100.976 21.8941 101.52 20.8233 102.231 19.9017C102.942 18.9801 103.838 18.234 104.908 17.6723C105.979 17.1106 107.234 16.8297 108.656 16.8297C109.806 16.8297 110.903 17.0755 111.939 17.5582C112.975 18.0497 113.791 18.7607 114.396 19.7173H114.475V9.96606H119.794V36.736H114.73V34.2609H114.651H114.668ZM114.44 24.6852C114.291 23.9479 114.037 23.2984 113.668 22.7366C113.308 22.1749 112.834 21.7185 112.264 21.3674C111.684 21.0164 110.965 20.8408 110.087 20.8408C109.209 20.8408 108.472 21.0164 107.875 21.3674C107.278 21.7185 106.795 22.1837 106.436 22.7542C106.076 23.3335 105.812 23.983 105.646 24.7203C105.479 25.4575 105.4 26.2299 105.4 27.0286C105.4 27.7747 105.488 28.5295 105.663 29.2755C105.839 30.0216 106.12 30.6974 106.506 31.2855C106.892 31.8735 107.384 32.3475 107.972 32.7074C108.56 33.0672 109.262 33.2515 110.087 33.2515C110.965 33.2515 111.693 33.076 112.281 32.7249C112.869 32.3738 113.334 31.9086 113.685 31.3206C114.037 30.7325 114.282 30.0655 114.431 29.3107C114.581 28.5558 114.66 27.7834 114.66 26.9847C114.66 26.186 114.581 25.4136 114.431 24.6764L114.44 24.6852Z" fill="white"/>
<path id="Vector_9" d="M131.767 32.084C132.566 32.8563 133.716 33.2425 135.217 33.2425C136.287 33.2425 137.218 32.9705 137.99 32.4351C138.763 31.8997 139.237 31.3292 139.412 30.7323H144.099C143.353 33.0582 142.203 34.7171 140.65 35.7177C139.096 36.7182 137.227 37.2185 135.024 37.2185C133.496 37.2185 132.127 36.9728 130.898 36.49C129.67 35.9985 128.634 35.3051 127.791 34.4099C126.94 33.5059 126.282 32.4351 125.825 31.1887C125.36 29.9424 125.132 28.5644 125.132 27.0635C125.132 25.5626 125.369 24.2636 125.843 23.0173C126.317 21.771 126.993 20.6914 127.87 19.7786C128.748 18.8658 129.792 18.146 131.004 17.6194C132.215 17.0928 133.558 16.8295 135.032 16.8295C136.682 16.8295 138.122 17.1455 139.342 17.7862C140.562 18.4269 141.571 19.2783 142.361 20.3579C143.151 21.4287 143.713 22.6574 144.064 24.0354C144.415 25.4134 144.538 26.8441 144.441 28.345H130.46C130.538 30.0653 130.969 31.3204 131.776 32.0928L131.767 32.084ZM137.78 21.8938C137.139 21.1917 136.173 20.8406 134.874 20.8406C134.023 20.8406 133.321 20.981 132.759 21.2707C132.197 21.5603 131.75 21.9114 131.407 22.3415C131.074 22.7628 130.828 23.2192 130.696 23.6931C130.556 24.1671 130.477 24.5972 130.451 24.9658H139.114C138.859 23.6141 138.42 22.596 137.78 21.8938Z" fill="white"/>
<path id="Vector_10" d="M156.246 9.96606L167.419 27.9239H167.498V9.96606H173.01V36.736H167.121L155.983 18.8133H155.904V36.736H150.392V9.96606H156.237H156.246Z" fill="white"/>
<path id="Vector_11" d="M180.005 14.3546V9.96606H185.333V14.3546H180.005ZM185.333 17.3563V36.736H180.005V17.3563H185.333Z" fill="white"/>
<path id="Vector_12" d="M196.838 17.3561V20.0594H196.952C197.628 18.936 198.506 18.1197 199.577 17.6019C200.648 17.0928 201.753 16.8295 202.877 16.8295C204.299 16.8295 205.466 17.0226 206.379 17.4088C207.292 17.795 208.011 18.3304 208.538 19.0238C209.065 19.7084 209.433 20.551 209.644 21.534C209.855 22.5258 209.96 23.6141 209.96 24.8166V36.7358H204.641V25.7908C204.641 24.1934 204.387 22.9997 203.895 22.2098C203.395 21.4199 202.508 21.0249 201.236 21.0249C199.787 21.0249 198.734 21.455 198.085 22.3151C197.435 23.1753 197.11 24.5972 197.11 26.572V36.727H191.783V17.3473H196.847L196.838 17.3561Z" fill="white"/>
<path id="Vector_13" d="M214.684 39.1321C215.236 39.1321 215.71 39.0268 216.123 38.8162C216.536 38.6055 216.746 38.1316 216.746 37.4118V17.3563H222.065V37.6752C222.065 38.6757 221.96 39.5359 221.749 40.2644C221.538 40.9929 221.17 41.5985 220.661 42.0812C220.152 42.5727 219.458 42.9326 218.581 43.1696C217.703 43.4066 216.597 43.5294 215.245 43.5294C214.622 43.5294 214.06 43.4768 213.56 43.3802V38.9917C213.832 39.0883 214.21 39.1409 214.684 39.1409V39.1321ZM216.746 14.3546V9.96606H222.065V14.3546H216.746Z" fill="white"/>
<path id="Vector_14" d="M228.7 23.3157C228.779 22.0694 229.086 21.0249 229.639 20.1999C230.192 19.3748 230.885 18.7166 231.737 18.2163C232.588 17.716 233.545 17.3649 234.607 17.1455C235.669 16.9348 236.74 16.8295 237.81 16.8295C238.785 16.8295 239.768 16.8997 240.768 17.0314C241.769 17.1718 242.682 17.4351 243.507 17.8389C244.332 18.2426 245.008 18.7955 245.534 19.5065C246.061 20.2174 246.324 21.1653 246.324 22.3327V32.4175C246.324 33.2952 246.377 34.129 246.473 34.9277C246.57 35.7264 246.745 36.3321 247 36.727H241.602C241.506 36.4286 241.418 36.1214 241.356 35.8054C241.295 35.4895 241.251 35.1735 241.225 34.8487C240.373 35.7264 239.373 36.3321 238.223 36.6831C237.073 37.0342 235.897 37.2098 234.695 37.2098C233.773 37.2098 232.904 37.0957 232.105 36.8762C231.307 36.6568 230.604 36.3057 230.008 35.823C229.411 35.349 228.937 34.7522 228.603 34.0237C228.27 33.2952 228.094 32.4351 228.094 31.4345C228.094 30.3373 228.287 29.4245 228.674 28.7136C229.06 28.0027 229.56 27.4321 230.174 27.0108C230.789 26.5895 231.491 26.2648 232.272 26.0542C233.062 25.8435 233.852 25.6767 234.651 25.5451C235.449 25.4222 236.239 25.3169 237.012 25.2467C237.784 25.1677 238.477 25.0623 239.074 24.9131C239.671 24.7639 240.145 24.5445 240.496 24.2549C240.847 23.9652 241.005 23.5527 240.988 22.9998C240.988 22.4292 240.891 21.9728 240.707 21.6305C240.523 21.297 240.268 21.0337 239.961 20.8406C239.645 20.6563 239.285 20.5246 238.872 20.4632C238.46 20.4017 238.012 20.3666 237.538 20.3666C236.485 20.3666 235.66 20.5948 235.063 21.0425C234.466 21.4901 234.115 22.2449 234.01 23.2894H228.691L228.7 23.3157ZM240.996 27.2478C240.768 27.4497 240.487 27.6077 240.154 27.713C239.82 27.8271 239.452 27.9149 239.066 27.9939C238.679 28.0729 238.276 28.1343 237.846 28.1782C237.424 28.2309 236.994 28.2923 236.573 28.3625C236.169 28.4415 235.783 28.5381 235.388 28.6609C235.002 28.7838 234.659 28.9594 234.379 29.17C234.089 29.3807 233.861 29.6527 233.685 29.9775C233.51 30.3022 233.422 30.7148 233.422 31.2151C233.422 31.7153 233.51 32.0928 233.685 32.4175C233.861 32.7423 234.098 32.9968 234.396 33.1899C234.695 33.3742 235.046 33.5059 235.449 33.5848C235.853 33.6638 236.266 33.699 236.687 33.699C237.74 33.699 238.548 33.5234 239.127 33.1723C239.697 32.8212 240.128 32.3999 240.4 31.9172C240.672 31.4257 240.847 30.9342 240.909 30.4339C240.97 29.9336 241.005 29.5299 241.005 29.2314V27.2478H240.996Z" fill="white"/>
</g>
</g>
</svg>
