<svg width="194" height="141" viewBox="0 0 194 141" fill="none" xmlns="http://www.w3.org/2000/svg">
<g id="Group 54">
<g id="Group">
<path id="Vector" d="M16.4868 106.293L49.7681 79.4558V137.43H16.4868V106.293Z" fill="url(#paint0_linear_5627_7525)"/>
<path id="Vector_2" d="M49.7682 140.135H16.4869C14.9939 140.135 13.7688 138.923 13.7688 137.417V106.293C13.7688 105.476 14.1389 104.697 14.7769 104.187L48.0454 77.3501C48.8622 76.6993 49.9724 76.5589 50.9167 77.0183C51.861 77.4649 52.4608 78.422 52.4608 79.4685V137.43C52.4608 138.923 51.2485 140.148 49.7427 140.148L49.7682 140.135ZM19.2051 134.712H47.0501V85.1344L19.2051 107.594V134.712Z" fill="#7A7E81"/>
</g>
<g id="Group_2">
<path id="Vector_3" d="M64.801 67.6516L73.3893 62.2919L98.0695 88.044V137.43H64.801V67.6516Z" fill="#CCF6FF"/>
<path id="Vector_4" d="M98.0695 140.135H64.7882C63.2951 140.135 62.0701 138.923 62.0701 137.417V67.6515C62.0701 66.7199 62.555 65.8522 63.3462 65.3545L71.9345 59.982C73.0192 59.3057 74.4357 59.4716 75.329 60.4031L100.022 86.168C100.507 86.6785 100.775 87.3421 100.775 88.0439V137.417C100.775 138.91 99.5625 140.135 98.0567 140.135H98.0695ZM67.5064 134.712H95.3513V89.1414L72.9426 65.7629L67.5064 69.1573V134.712Z" fill="#7A7E81"/>
</g>
<g id="Group_3">
<path id="Vector_5" d="M110.958 93.4164L118.475 99.8608L144.24 73.0239V137.43H110.958V93.4164Z" fill="#95D6E6"/>
<path id="Vector_6" d="M144.24 140.135H110.971C109.478 140.135 108.253 138.923 108.253 137.417V93.4037C108.253 92.3445 108.865 91.3874 109.835 90.9407C110.792 90.4941 111.928 90.66 112.732 91.3491L118.296 96.1218L142.287 71.1353C143.053 70.3314 144.227 70.0889 145.26 70.4973C146.294 70.9056 146.958 71.901 146.958 73.0112V137.417C146.958 138.91 145.745 140.135 144.24 140.135ZM113.676 134.712H141.521V79.7619L120.427 101.737C119.432 102.77 117.798 102.86 116.701 101.915L113.664 99.3121V134.712H113.676Z" fill="#7A7E81"/>
</g>
<g id="Group_4">
<path id="Vector_7" d="M159.26 67.6516L190.397 36.527V137.43H159.26V67.6516Z" fill="#CCF6FF"/>
<path id="Vector_8" d="M190.397 140.135H159.272C157.779 140.135 156.554 138.923 156.554 137.417V67.6516C156.554 66.937 156.835 66.2479 157.345 65.7375L188.47 34.6128C189.248 33.8344 190.41 33.6047 191.431 34.0258C192.439 34.447 193.102 35.4296 193.102 36.527V137.43C193.102 138.923 191.89 140.148 190.384 140.148L190.397 140.135ZM161.978 134.712H187.679V43.0735L161.978 68.7746V134.712Z" fill="#7A7E81"/>
</g>
<path id="Vector_9" d="M3.62372 83.0799C2.55177 83.0799 1.49259 82.6078 0.777964 81.7017C-0.459874 80.1321 -0.191889 77.8606 1.37774 76.6228L68.6421 23.6637C70.0203 22.579 71.9856 22.6428 73.2872 23.8041L111.175 57.6213L188.24 0.706268C189.848 -0.480525 192.107 -0.135972 193.294 1.47194C194.481 3.07985 194.136 5.33859 192.528 6.52538L113.089 65.2015C111.711 66.2224 109.81 66.133 108.534 64.9845L70.7222 31.2311L5.85693 82.3015C5.19335 82.8247 4.40215 83.0799 3.62372 83.0799Z" fill="#7A7E81"/>
</g>
<defs>
<linearGradient id="paint0_linear_5627_7525" x1="33.1274" y1="79.4558" x2="33.1274" y2="137.43" gradientUnits="userSpaceOnUse">
<stop stop-color="#40ADBF"/>
<stop offset="1" stop-color="#4067F6"/>
</linearGradient>
</defs>
</svg>
