<svg width="48" height="41" viewBox="0 0 48 41" fill="none" xmlns="http://www.w3.org/2000/svg">
<path d="M32.822 13.3649C35.0765 12.0212 39.3596 14.369 40.4459 12.4432C40.518 13.6365 39.6432 14.2574 38.8548 14.3254C37.2589 14.466 34.8169 12.938 32.822 13.3649Z" fill="white"/>
<path d="M45.6232 15.9164C42.1093 15.9164 38.081 19.768 33.6057 18.793C28.9092 17.7646 28.5535 12.6033 30.5532 10.5805C28.8948 10.3089 27.4094 11.0171 26.6067 12.5403C29.1063 4.88568 42.4554 14.3884 46.1231 12.6324C46.5317 12.4384 46.8201 12.0309 46.6855 11.5847C44.6377 4.82747 38.379 -0.0767047 30.9955 0.000908355C21.9727 0.0930738 14.8151 7.50027 14.9401 16.6004C15.0603 25.5404 22.2804 32.7488 31.1685 32.7488C40.0567 32.7488 46.6134 26.1808 47.3345 17.8083C47.421 16.7944 46.6375 15.9116 45.6328 15.9116L45.6232 15.9164ZM31.755 20.9273C29.8562 20.1463 28.9477 18.4097 28.8708 16.3433C29.3274 18.109 30.6926 19.7437 33.2019 20.1949C37.557 20.9758 41.3498 17.3862 44.7868 16.8478C40.6383 18.3079 36.0765 22.7124 31.7502 20.9273H31.755Z" fill="white"/>
<path d="M7.72974 13.5494L8.84015 17.3281C9.75829 17.2699 10.6572 17.0031 11.4407 16.5084C13.9644 14.9124 15.9209 12.3318 17.2909 9.6687C14.5461 11.8273 10.7197 13.8307 7.73453 13.5494H7.72974Z" fill="white"/>
<path d="M17.286 9.25133C11.1474 9.45507 4.14364 6.30689 0 2.03333L2.64385 11.0364C3.41297 11.4585 4.24458 11.7544 5.11945 11.8902C9.25828 12.5256 13.6903 11.5894 17.5792 10.0226C16.9303 9.98866 17.9445 9.23193 17.2908 9.25133H17.286Z" fill="white"/>
<path d="M11.811 31.3712C16.2719 37.2262 23.2805 41.0001 31.164 41.0001C37.4997 41.0001 43.268 38.565 47.604 34.5728C37.5958 36.6974 26.7608 24.8857 11.811 31.3761V31.3712Z" fill="white"/>
<path d="M37.4373 15.9649C38.1356 15.9649 38.7016 15.3937 38.7016 14.6891C38.7016 13.9845 38.1356 13.4133 37.4373 13.4133C36.7391 13.4133 36.1731 13.9845 36.1731 14.6891C36.1731 15.3937 36.7391 15.9649 37.4373 15.9649Z" fill="white"/>
</svg>
