<svg width="22" height="22" viewBox="0 0 22 22" fill="none" xmlns="http://www.w3.org/2000/svg">
<g clip-path="url(#clip0_5535_1112)">
<path fill-rule="evenodd" clip-rule="evenodd" d="M2.75 0C2.02065 0 1.32118 0.289731 0.805456 0.805456C0.289731 1.32118 0 2.02065 0 2.75L0 19.25C0 19.9793 0.289731 20.6788 0.805456 21.1945C1.32118 21.7103 2.02065 22 2.75 22H19.25C19.9793 22 20.6788 21.7103 21.1945 21.1945C21.7103 20.6788 22 19.9793 22 19.25V2.75C22 2.02065 21.7103 1.32118 21.1945 0.805456C20.6788 0.289731 19.9793 0 19.25 0L2.75 0ZM11.6875 6.1875C11.6875 6.00516 11.6151 5.8303 11.4861 5.70136C11.3572 5.57243 11.1823 5.5 11 5.5C10.8177 5.5 10.6428 5.57243 10.5139 5.70136C10.3849 5.8303 10.3125 6.00516 10.3125 6.1875V10.3125H6.1875C6.00516 10.3125 5.8303 10.3849 5.70136 10.5139C5.57243 10.6428 5.5 10.8177 5.5 11C5.5 11.1823 5.57243 11.3572 5.70136 11.4861C5.8303 11.6151 6.00516 11.6875 6.1875 11.6875H10.3125V15.8125C10.3125 15.9948 10.3849 16.1697 10.5139 16.2986C10.6428 16.4276 10.8177 16.5 11 16.5C11.1823 16.5 11.3572 16.4276 11.4861 16.2986C11.6151 16.1697 11.6875 15.9948 11.6875 15.8125V11.6875H15.8125C15.9948 11.6875 16.1697 11.6151 16.2986 11.4861C16.4276 11.3572 16.5 11.1823 16.5 11C16.5 10.8177 16.4276 10.6428 16.2986 10.5139C16.1697 10.3849 15.9948 10.3125 15.8125 10.3125H11.6875V6.1875Z" fill="#3FADBE"/>
</g>
<defs>
<clipPath id="clip0_5535_1112">
<rect width="22" height="22" fill="white"/>
</clipPath>
</defs>
</svg>
