<svg width="19" height="20" viewBox="0 0 19 20" fill="none" xmlns="http://www.w3.org/2000/svg">
<g id="easel" clip-path="url(#clip0_5627_7827)">
<path id="Vector" d="M10.062 0.421175C10.0219 0.297928 9.94621 0.19096 9.84551 0.115226C9.7448 0.0394924 9.62412 -0.0012207 9.50036 -0.0012207C9.37659 -0.0012207 9.25591 0.0394924 9.1552 0.115226C9.0545 0.19096 8.97879 0.297928 8.93867 0.421175L8.25823 2.49993H10.7425L10.062 0.421175ZM14.4285 13.7499H13.1721L14.8762 18.9537C14.9275 19.1105 15.0359 19.2394 15.1776 19.3121C15.3192 19.3847 15.4824 19.3952 15.6314 19.3412C15.7804 19.2871 15.9029 19.173 15.9719 19.0239C16.0409 18.8748 16.0509 18.703 15.9995 18.5462L14.4285 13.7499ZM10.0941 13.7499H8.90661V16.8749C8.90661 17.0407 8.96916 17.1997 9.08051 17.3169C9.19186 17.4341 9.34288 17.4999 9.50036 17.4999C9.65783 17.4999 9.80885 17.4341 9.9202 17.3169C10.0315 17.1997 10.0941 17.0407 10.0941 16.8749V13.7499ZM5.8286 13.7499H4.57223L3.00117 18.5462C2.94983 18.703 2.95977 18.8748 3.02881 19.0239C3.09785 19.173 3.22032 19.2871 3.36929 19.3412C3.51826 19.3952 3.68152 19.3847 3.82316 19.3121C3.96479 19.2394 4.07321 19.1105 4.12454 18.9537L5.8286 13.7499Z" fill="#3FADBE"/>
<path id="Vector_2" fill-rule="evenodd" clip-rule="evenodd" d="M16.625 3.75H2.375V12.5H16.625V3.75ZM2.375 2.5C2.06006 2.5 1.75801 2.6317 1.53531 2.86612C1.31261 3.10054 1.1875 3.41848 1.1875 3.75V12.5C1.1875 12.8315 1.31261 13.1495 1.53531 13.3839C1.75801 13.6183 2.06006 13.75 2.375 13.75H16.625C16.9399 13.75 17.242 13.6183 17.4647 13.3839C17.6874 13.1495 17.8125 12.8315 17.8125 12.5V3.75C17.8125 3.41848 17.6874 3.10054 17.4647 2.86612C17.242 2.6317 16.9399 2.5 16.625 2.5H2.375Z" fill="#3FADBE"/>
</g>
<defs>
<clipPath id="clip0_5627_7827">
<rect width="19" height="20" fill="white"/>
</clipPath>
</defs>
</svg>
