<svg width="19" height="21" viewBox="0 0 19 21" fill="none" xmlns="http://www.w3.org/2000/svg">
<g id="bicycle">
<path id="Vector" fill-rule="evenodd" clip-rule="evenodd" d="M4.75003 5.90625C4.75003 5.7322 4.81258 5.56528 4.92393 5.44221C5.03528 5.31914 5.18631 5.25 5.34378 5.25H7.12503C7.2825 5.25 7.43352 5.31914 7.54487 5.44221C7.65622 5.56528 7.71878 5.7322 7.71878 5.90625C7.71878 6.0803 7.65622 6.24722 7.54487 6.37029C7.43352 6.49336 7.2825 6.5625 7.12503 6.5625V7.21875H12.0413L12.4997 5.69887C12.539 5.56825 12.6146 5.45462 12.7156 5.37406C12.8166 5.29351 12.938 5.2501 13.0625 5.25H14.25C14.4075 5.25 14.5585 5.31914 14.6699 5.44221C14.7812 5.56528 14.8438 5.7322 14.8438 5.90625C14.8438 6.0803 14.7812 6.24722 14.6699 6.37029C14.5585 6.49336 14.4075 6.5625 14.25 6.5625H13.49L13.1207 7.78969L14.079 9.48281C14.9048 9.10641 15.8284 9.08662 16.6668 9.42737C17.5052 9.76812 18.1971 10.4445 18.6056 11.3226C19.014 12.2006 19.1091 13.2162 18.8719 14.1681C18.6348 15.12 18.0828 15.9386 17.3254 16.4619C16.5679 16.9852 15.6602 17.1748 14.7822 16.9933C13.9041 16.8117 13.1198 16.2722 12.5847 15.4817C12.0496 14.6912 11.8027 13.7073 11.893 12.7251C11.9832 11.7428 12.404 10.8339 13.072 10.1784L12.4688 9.11269L10.0035 13.4728C9.95016 13.5672 9.87594 13.645 9.78786 13.699C9.69978 13.7529 9.60073 13.7812 9.50003 13.7812H7.07634C6.95319 14.5861 6.60678 15.3287 6.08504 15.9064C5.5633 16.4841 4.89202 16.8683 4.16407 17.0058C3.43612 17.1434 2.68748 17.0275 2.02173 16.6742C1.35599 16.3209 0.806036 15.7476 0.447969 15.0337C0.089902 14.3198 -0.0585819 13.5006 0.0230597 12.6894C0.104701 11.8781 0.412433 11.115 0.90368 10.5055C1.39493 9.896 2.04541 9.47033 2.76512 9.28735C3.48484 9.10437 4.23822 9.17313 4.92103 9.48412L5.93753 7.686V6.5625H5.34378C5.18631 6.5625 5.03528 6.49336 4.92393 6.37029C4.81258 6.24722 4.75003 6.0803 4.75003 5.90625ZM6.53128 9.11269L5.92803 10.1811C6.52178 10.7638 6.9374 11.5644 7.07634 12.4687H8.4289L6.53128 9.11269ZM9.50003 11.8873L11.3977 8.53125H7.6024L9.50003 11.8873ZM5.86272 12.4687C5.7617 12.0369 5.56265 11.6407 5.2844 11.3177L4.63365 12.4687H5.86272ZM4.27859 10.6207C3.82558 10.4626 3.34006 10.4583 2.8848 10.6083C2.42954 10.7584 2.02544 11.0558 1.72473 11.4623C1.42403 11.8688 1.24053 12.3657 1.19795 12.8886C1.15537 13.4116 1.25567 13.9367 1.48588 14.396C1.7161 14.8553 2.06565 15.2277 2.48937 15.4652C2.91309 15.7026 3.3915 15.7941 3.86277 15.728C4.33405 15.6618 4.77654 15.4409 5.13306 15.0939C5.48958 14.7468 5.74375 14.2896 5.86272 13.7812H3.56253C3.45654 13.7812 3.35249 13.7499 3.26117 13.6904C3.16985 13.631 3.09459 13.5456 3.04321 13.4431C2.99183 13.3407 2.9662 13.2249 2.96898 13.1078C2.97176 12.9907 3.00286 12.8765 3.05903 12.7772L4.27859 10.6207ZM13.7157 11.3164C13.3176 11.7797 13.0861 12.3876 13.0646 13.026C13.043 13.6645 13.2329 14.2897 13.5986 14.7845C13.9643 15.2793 14.4807 15.6097 15.051 15.7138C15.6214 15.8179 16.2065 15.6885 16.6967 15.3499C17.1869 15.0112 17.5485 14.4867 17.7138 13.8744C17.8791 13.2622 17.8366 12.6043 17.5945 12.0242C17.3523 11.4441 16.927 10.9814 16.3984 10.7231C15.8697 10.4647 15.2739 10.4283 14.7227 10.6207L15.941 12.7772C15.9824 12.8503 16.0103 12.9316 16.0231 13.0166C16.036 13.1016 16.0336 13.1886 16.0161 13.2726C15.9985 13.3565 15.9662 13.4359 15.9209 13.506C15.8757 13.5762 15.8183 13.6358 15.7522 13.6815C15.6861 13.7272 15.6125 13.758 15.5356 13.7722C15.4587 13.7865 15.38 13.7838 15.304 13.7644C15.228 13.7451 15.1563 13.7093 15.0928 13.6593C15.0293 13.6093 14.9754 13.5459 14.934 13.4728L13.7157 11.3177V11.3164Z" fill="#3FADBE"/>
</g>
</svg>
