<svg width="19" height="20" viewBox="0 0 19 20" fill="none" xmlns="http://www.w3.org/2000/svg">
<g id="cart-check">
<path id="Vector" fill-rule="evenodd" clip-rule="evenodd" d="M0 1.875C0 1.70924 0.0625556 1.55027 0.173905 1.43306C0.285255 1.31585 0.436278 1.25 0.59375 1.25H2.375C2.50744 1.25004 2.63607 1.29669 2.74043 1.38253C2.84479 1.46837 2.91889 1.58848 2.95094 1.72375L3.43188 3.75H17.2188C17.3059 3.75008 17.392 3.77038 17.4709 3.80944C17.5498 3.8485 17.6196 3.90537 17.6752 3.976C17.7309 4.04664 17.7711 4.12931 17.7929 4.21815C17.8148 4.30698 17.8179 4.3998 17.8018 4.49L16.0206 14.49C15.9951 14.6332 15.9229 14.7626 15.8164 14.8557C15.71 14.9488 15.5759 14.9999 15.4375 15H4.75C4.61158 14.9999 4.47755 14.9488 4.37108 14.8557C4.26462 14.7626 4.19241 14.6332 4.16694 14.49L2.38688 4.50875L1.91188 2.5H0.59375C0.436278 2.5 0.285255 2.43415 0.173905 2.31694C0.0625556 2.19973 0 2.04076 0 1.875ZM3.68363 5L5.24281 13.75H14.9447L16.5039 5H3.68363ZM5.9375 15C5.30761 15 4.70352 15.2634 4.25812 15.7322C3.81272 16.2011 3.5625 16.837 3.5625 17.5C3.5625 18.163 3.81272 18.7989 4.25812 19.2678C4.70352 19.7366 5.30761 20 5.9375 20C6.56739 20 7.17148 19.7366 7.61688 19.2678C8.06228 18.7989 8.3125 18.163 8.3125 17.5C8.3125 16.837 8.06228 16.2011 7.61688 15.7322C7.17148 15.2634 6.56739 15 5.9375 15ZM14.25 15C13.6201 15 13.016 15.2634 12.5706 15.7322C12.1252 16.2011 11.875 16.837 11.875 17.5C11.875 18.163 12.1252 18.7989 12.5706 19.2678C13.016 19.7366 13.6201 20 14.25 20C14.8799 20 15.484 19.7366 15.9294 19.2678C16.3748 18.7989 16.625 18.163 16.625 17.5C16.625 16.837 16.3748 16.2011 15.9294 15.7322C15.484 15.2634 14.8799 15 14.25 15ZM5.9375 16.25C5.62256 16.25 5.32051 16.3817 5.09781 16.6161C4.87511 16.8505 4.75 17.1685 4.75 17.5C4.75 17.8315 4.87511 18.1495 5.09781 18.3839C5.32051 18.6183 5.62256 18.75 5.9375 18.75C6.25245 18.75 6.55449 18.6183 6.77719 18.3839C6.99989 18.1495 7.125 17.8315 7.125 17.5C7.125 17.1685 6.99989 16.8505 6.77719 16.6161C6.55449 16.3817 6.25245 16.25 5.9375 16.25ZM14.25 16.25C13.9351 16.25 13.633 16.3817 13.4103 16.6161C13.1876 16.8505 13.0625 17.1685 13.0625 17.5C13.0625 17.8315 13.1876 18.1495 13.4103 18.3839C13.633 18.6183 13.9351 18.75 14.25 18.75C14.5649 18.75 14.867 18.6183 15.0897 18.3839C15.3124 18.1495 15.4375 17.8315 15.4375 17.5C15.4375 17.1685 15.3124 16.8505 15.0897 16.6161C14.867 16.3817 14.5649 16.25 14.25 16.25Z" fill="#3FADBE"/>
<path id="Vector_2" fill-rule="evenodd" clip-rule="evenodd" d="M13.483 7.0574C13.5383 7.11545 13.5822 7.18442 13.6121 7.26035C13.642 7.33629 13.6575 7.41769 13.6575 7.4999C13.6575 7.58211 13.642 7.66351 13.6121 7.73944C13.5822 7.81537 13.5383 7.88434 13.483 7.9424L9.92051 11.6924C9.86536 11.7506 9.79984 11.7968 9.7277 11.8283C9.65557 11.8598 9.57824 11.876 9.50014 11.876C9.42204 11.876 9.34471 11.8598 9.27257 11.8283C9.20044 11.7968 9.13492 11.7506 9.07976 11.6924L7.29851 9.8174C7.24331 9.75929 7.19952 9.6903 7.16964 9.61438C7.13977 9.53845 7.12439 9.45708 7.12439 9.3749C7.12439 9.29272 7.13977 9.21134 7.16964 9.13542C7.19952 9.05949 7.24331 8.99051 7.29851 8.9324C7.35372 8.87429 7.41926 8.82819 7.49138 8.79674C7.56351 8.76529 7.64082 8.74911 7.71889 8.74911C7.79696 8.74911 7.87427 8.76529 7.9464 8.79674C8.01852 8.82819 8.08406 8.87429 8.13926 8.9324L9.50014 10.3661L12.6423 7.0574C12.6974 6.99919 12.7629 6.95301 12.8351 6.92151C12.9072 6.89 12.9845 6.87378 13.0626 6.87378C13.1407 6.87378 13.2181 6.89 13.2902 6.92151C13.3623 6.95301 13.4279 6.99919 13.483 7.0574Z" fill="#3FADBE"/>
</g>
</svg>
