<svg width="247" height="61" viewBox="0 0 247 61" fill="none" xmlns="http://www.w3.org/2000/svg">
<path d="M48.979 19.7637C52.3433 17.7767 58.7347 21.2486 60.3559 18.4008C60.4635 20.1654 59.1579 21.0836 57.9815 21.184C55.6 21.392 51.9559 19.1324 48.979 19.7637Z" fill="#7A7E81"/>
<path d="M68.0816 23.5369C62.8379 23.5369 56.8266 29.2325 50.1483 27.7907C43.14 26.27 42.6092 18.6376 45.5933 15.6463C43.1185 15.2446 40.9019 16.2919 39.704 18.5443C43.4341 7.22486 63.3544 21.2773 68.8276 18.6806C69.4373 18.3937 69.8677 17.7911 69.6669 17.1312C66.611 7.13878 57.2714 -0.11343 46.2532 0.00134326C32.7889 0.137636 22.1079 11.0913 22.2944 24.5484C22.4737 37.7688 33.248 48.4283 46.5114 48.4283C59.7749 48.4283 69.5593 38.7156 70.6353 26.3345C70.7644 24.8353 69.5951 23.5298 68.0959 23.5298L68.0816 23.5369ZM47.3866 30.947C44.5531 29.7921 43.1974 27.224 43.0826 24.1682C43.7641 26.7793 45.8013 29.1967 49.5458 29.8638C56.0448 31.0187 61.7045 25.7104 66.8334 24.9142C60.6429 27.0734 53.8354 33.5867 47.3794 30.947H47.3866Z" fill="#7A7E81"/>
<path d="M11.5352 20.0365L13.1922 25.6245C14.5623 25.5384 15.9037 25.1439 17.0729 24.4122C20.8389 22.0522 23.7584 18.236 25.8028 14.2979C21.7069 17.49 15.9969 20.4525 11.5423 20.0365H11.5352Z" fill="#7A7E81"/>
<path d="M25.7952 13.6808C16.6349 13.9821 6.18338 9.32663 0 3.00696L3.94531 16.3206C5.09304 16.9447 6.33402 17.3822 7.63956 17.5831C13.8158 18.5228 20.4296 17.1384 26.2328 14.8214C25.2644 14.7712 26.7779 13.6521 25.8024 13.6808H25.7952Z" fill="#7A7E81"/>
<path d="M17.6245 46.391C24.2813 55.0491 34.74 60.63 46.5042 60.63C55.9586 60.63 64.5666 57.029 71.0369 51.1253C56.1021 54.2672 39.9335 36.8003 17.6245 46.3981V46.391Z" fill="#7A7E81"/>
<path d="M55.8666 23.6086C56.9085 23.6086 57.7531 22.764 57.7531 21.722C57.7531 20.6801 56.9085 19.8354 55.8666 19.8354C54.8246 19.8354 53.98 20.6801 53.98 21.722C53.98 22.764 54.8246 23.6086 55.8666 23.6086Z" fill="#7A7E81"/>
<path d="M75.8657 22.8505C76.3397 21.5866 77.0155 20.5158 77.8932 19.6293C78.7709 18.7429 79.8154 18.0583 81.0442 17.5668C82.2642 17.0752 83.6422 16.8383 85.1694 16.8383C86.6966 16.8383 88.0746 17.084 89.3121 17.5668C90.5497 18.0495 91.6029 18.7429 92.4806 19.6293C93.3583 20.5158 94.0342 21.5954 94.5082 22.8505C94.9821 24.1144 95.2191 25.5187 95.2191 27.0635C95.2191 28.6083 94.9821 30.0126 94.5082 31.2589C94.0342 32.5053 93.3583 33.5761 92.4806 34.4625C91.6029 35.349 90.5497 36.0336 89.3121 36.5076C88.0746 36.9815 86.6966 37.2185 85.1694 37.2185C83.6422 37.2185 82.273 36.9815 81.0442 36.5076C79.8154 36.0336 78.7709 35.349 77.8932 34.4625C77.0155 33.5761 76.3397 32.5053 75.8657 31.2589C75.3918 30.0126 75.1548 28.6083 75.1548 27.0635C75.1548 25.5187 75.3918 24.1056 75.8657 22.8505ZM80.7018 29.328C80.8511 30.0652 81.1056 30.7323 81.4742 31.3116C81.8341 31.8996 82.3168 32.3648 82.9137 32.7159C83.5105 33.067 84.2653 33.2425 85.1606 33.2425C86.0559 33.2425 86.8195 33.067 87.4251 32.7159C88.0395 32.3648 88.5222 31.8996 88.8908 31.3116C89.2507 30.7235 89.5052 30.0652 89.6632 29.328C89.8124 28.5907 89.8914 27.8359 89.8914 27.0635C89.8914 26.2911 89.8124 25.5275 89.6632 24.7727C89.514 24.0266 89.2595 23.3596 88.8908 22.7891C88.531 22.2186 88.0395 21.7446 87.4251 21.3848C86.8107 21.0249 86.0559 20.8406 85.1606 20.8406C84.2653 20.8406 83.5105 21.0249 82.9137 21.3848C82.3168 21.7446 81.8341 22.2186 81.4742 22.7891C81.1144 23.3684 80.8511 24.0266 80.7018 24.7727C80.5526 25.5187 80.4737 26.2823 80.4737 27.0635C80.4737 27.8446 80.5526 28.5907 80.7018 29.328Z" fill="#7A7E81"/>
<path d="M114.668 34.2609C114.045 35.3141 113.229 36.069 112.211 36.5254C111.202 36.9905 110.052 37.2188 108.779 37.2188C107.331 37.2188 106.058 36.9379 104.952 36.3762C103.855 35.8144 102.942 35.0508 102.231 34.0853C101.52 33.1199 100.985 32.014 100.616 30.7676C100.257 29.5213 100.072 28.2223 100.072 26.8706C100.072 25.519 100.257 24.3165 100.616 23.1053C100.976 21.8941 101.52 20.8233 102.231 19.9017C102.942 18.9801 103.838 18.234 104.908 17.6723C105.979 17.1106 107.234 16.8297 108.656 16.8297C109.806 16.8297 110.903 17.0755 111.939 17.5582C112.975 18.0497 113.791 18.7607 114.396 19.7173H114.475V9.96606H119.794V36.736H114.73V34.2609H114.651H114.668ZM114.44 24.6852C114.291 23.9479 114.037 23.2984 113.668 22.7366C113.308 22.1749 112.834 21.7185 112.264 21.3674C111.684 21.0164 110.965 20.8408 110.087 20.8408C109.209 20.8408 108.472 21.0164 107.875 21.3674C107.278 21.7185 106.795 22.1837 106.436 22.7542C106.076 23.3335 105.812 23.983 105.646 24.7203C105.479 25.4575 105.4 26.2299 105.4 27.0286C105.4 27.7747 105.488 28.5295 105.663 29.2755C105.839 30.0216 106.12 30.6974 106.506 31.2855C106.892 31.8735 107.384 32.3475 107.972 32.7074C108.56 33.0672 109.262 33.2515 110.087 33.2515C110.965 33.2515 111.693 33.076 112.281 32.7249C112.869 32.3738 113.334 31.9086 113.685 31.3206C114.037 30.7325 114.282 30.0655 114.431 29.3106C114.581 28.5558 114.66 27.7834 114.66 26.9847C114.66 26.186 114.581 25.4136 114.431 24.6764L114.44 24.6852Z" fill="#7A7E81"/>
<path d="M131.767 32.0841C132.566 32.8564 133.716 33.2426 135.217 33.2426C136.287 33.2426 137.218 32.9706 137.99 32.4352C138.763 31.8998 139.237 31.3292 139.412 30.7324H144.099C143.353 33.0583 142.203 34.7172 140.65 35.7178C139.096 36.7183 137.227 37.2186 135.024 37.2186C133.496 37.2186 132.127 36.9729 130.898 36.4901C129.67 35.9986 128.634 35.3052 127.791 34.41C126.94 33.5059 126.282 32.4352 125.825 31.1888C125.36 29.9425 125.132 28.5645 125.132 27.0636C125.132 25.5627 125.369 24.2637 125.843 23.0174C126.317 21.771 126.993 20.6915 127.87 19.7787C128.748 18.8659 129.792 18.1461 131.004 17.6195C132.215 17.0929 133.558 16.8296 135.032 16.8296C136.682 16.8296 138.122 17.1456 139.342 17.7863C140.562 18.427 141.571 19.2784 142.361 20.3579C143.151 21.4287 143.713 22.6575 144.064 24.0355C144.415 25.4135 144.538 26.8442 144.441 28.3451H130.46C130.538 30.0653 130.969 31.3205 131.776 32.0928L131.767 32.0841ZM137.78 21.8939C137.139 21.1918 136.173 20.8407 134.874 20.8407C134.023 20.8407 133.321 20.9811 132.759 21.2708C132.197 21.5604 131.75 21.9115 131.407 22.3416C131.074 22.7629 130.828 23.2193 130.696 23.6932C130.556 24.1672 130.477 24.5973 130.451 24.9659H139.114C138.859 23.6142 138.42 22.5961 137.78 21.8939Z" fill="#7A7E81"/>
<path d="M156.246 9.96606L167.419 27.9239H167.498V9.96606H173.01V36.736H167.121L155.983 18.8133H155.904V36.736H150.392V9.96606H156.237H156.246Z" fill="#7A7E81"/>
<path d="M180.005 14.3546V9.96606H185.333V14.3546H180.005ZM185.333 17.3563V36.736H180.005V17.3563H185.333Z" fill="#7A7E81"/>
<path d="M196.838 17.3562V20.0595H196.952C197.628 18.9361 198.506 18.1198 199.577 17.602C200.648 17.0929 201.753 16.8296 202.877 16.8296C204.299 16.8296 205.466 17.0227 206.379 17.4089C207.292 17.7951 208.011 18.3305 208.538 19.0238C209.065 19.7085 209.433 20.5511 209.644 21.5341C209.855 22.5259 209.96 23.6142 209.96 24.8167V36.7359H204.641V25.7909C204.641 24.1935 204.387 22.9998 203.895 22.2099C203.395 21.42 202.508 21.025 201.236 21.025C199.787 21.025 198.734 21.4551 198.085 22.3152C197.435 23.1754 197.11 24.5973 197.11 26.5721V36.7271H191.783V17.3474H196.847L196.838 17.3562Z" fill="#7A7E81"/>
<path d="M214.684 39.1321C215.236 39.1321 215.71 39.0268 216.123 38.8162C216.536 38.6055 216.746 38.1316 216.746 37.4118V17.3563H222.065V37.6752C222.065 38.6757 221.96 39.5359 221.749 40.2644C221.538 40.9929 221.17 41.5985 220.661 42.0812C220.152 42.5727 219.458 42.9326 218.581 43.1696C217.703 43.4066 216.597 43.5294 215.245 43.5294C214.622 43.5294 214.06 43.4768 213.56 43.3802V38.9917C213.832 39.0883 214.21 39.1409 214.684 39.1409V39.1321ZM216.746 14.3546V9.96606H222.065V14.3546H216.746Z" fill="#7A7E81"/>
<path d="M228.7 23.3158C228.779 22.0695 229.086 21.025 229.639 20.2C230.192 19.3749 230.885 18.7167 231.737 18.2164C232.588 17.7161 233.545 17.365 234.607 17.1456C235.669 16.9349 236.74 16.8296 237.81 16.8296C238.785 16.8296 239.768 16.8998 240.768 17.0315C241.769 17.1719 242.682 17.4352 243.507 17.8389C244.332 18.2427 245.008 18.7956 245.534 19.5066C246.061 20.2175 246.324 21.1654 246.324 22.3328V32.4176C246.324 33.2953 246.377 34.1291 246.473 34.9278C246.57 35.7265 246.745 36.3322 247 36.7271H241.602C241.506 36.4287 241.418 36.1215 241.356 35.8055C241.295 35.4896 241.251 35.1736 241.225 34.8488C240.373 35.7265 239.373 36.3321 238.223 36.6832C237.073 37.0343 235.897 37.2099 234.695 37.2099C233.773 37.2099 232.904 37.0958 232.105 36.8763C231.307 36.6569 230.604 36.3058 230.008 35.8231C229.411 35.3491 228.937 34.7523 228.603 34.0238C228.27 33.2953 228.094 32.4352 228.094 31.4346C228.094 30.3374 228.287 29.4246 228.674 28.7137C229.06 28.0027 229.56 27.4322 230.174 27.0109C230.789 26.5896 231.491 26.2649 232.272 26.0542C233.062 25.8436 233.852 25.6768 234.651 25.5452C235.449 25.4223 236.239 25.317 237.012 25.2468C237.784 25.1678 238.477 25.0624 239.074 24.9132C239.671 24.764 240.145 24.5446 240.496 24.255C240.847 23.9653 241.005 23.5528 240.988 22.9998C240.988 22.4293 240.891 21.9729 240.707 21.6306C240.523 21.2971 240.268 21.0338 239.961 20.8407C239.645 20.6564 239.285 20.5247 238.872 20.4633C238.46 20.4018 238.012 20.3667 237.538 20.3667C236.485 20.3667 235.66 20.5949 235.063 21.0426C234.466 21.4902 234.115 22.245 234.01 23.2895H228.691L228.7 23.3158ZM240.996 27.2479C240.768 27.4498 240.487 27.6078 240.154 27.7131C239.82 27.8272 239.452 27.915 239.066 27.994C238.679 28.073 238.276 28.1344 237.846 28.1783C237.424 28.2309 236.994 28.2924 236.573 28.3626C236.169 28.4416 235.783 28.5381 235.388 28.661C235.002 28.7839 234.659 28.9594 234.379 29.1701C234.089 29.3807 233.861 29.6528 233.685 29.9776C233.51 30.3023 233.422 30.7149 233.422 31.2151C233.422 31.7154 233.51 32.0928 233.685 32.4176C233.861 32.7423 234.098 32.9969 234.396 33.19C234.695 33.3743 235.046 33.5059 235.449 33.5849C235.853 33.6639 236.266 33.699 236.687 33.699C237.74 33.699 238.548 33.5235 239.127 33.1724C239.697 32.8213 240.128 32.4 240.4 31.9173C240.672 31.4258 240.847 30.9343 240.909 30.434C240.97 29.9337 241.005 29.5299 241.005 29.2315V27.2479H240.996Z" fill="#7A7E81"/>
</svg>
