<svg width="171" height="42" viewBox="0 0 171 42" fill="none" xmlns="http://www.w3.org/2000/svg">
<path d="M34.3245 13.6908C36.6339 12.3143 41.0214 14.7194 42.1343 12.7467C42.2082 13.9691 41.312 14.6051 40.5044 14.6747C38.8696 14.8188 36.368 13.2535 34.3245 13.6908Z" fill="white"/>
<path d="M47.438 16.3046C43.8384 16.3046 39.7118 20.2501 35.1274 19.2513C30.3164 18.1979 29.952 12.9107 32.0005 10.8386C30.3016 10.5603 28.78 11.2858 27.9577 12.8461C30.5183 5.00485 44.1929 14.7394 47.9501 12.9405C48.3687 12.7418 48.6641 12.3244 48.5262 11.8672C46.4285 4.94521 40.0172 -0.0785755 32.4535 0.00093051C23.2107 0.0953439 15.8785 7.6832 16.0065 17.0053C16.1296 26.1634 23.5258 33.5475 32.6308 33.5475C41.7357 33.5475 48.4524 26.8193 49.191 18.2426C49.2797 17.2041 48.477 16.2997 47.4478 16.2997L47.438 16.3046ZM33.2315 21.4377C31.2865 20.6377 30.3558 18.8588 30.277 16.7419C30.7448 18.5507 32.1433 20.2253 34.7137 20.6874C39.1751 21.4874 43.0603 17.8103 46.5812 17.2587C42.3315 18.7544 37.6584 23.2664 33.2266 21.4377H33.2315Z" fill="white"/>
<path d="M8.62061 13.8798L9.7581 17.7507C10.6986 17.6911 11.6195 17.4178 12.4221 16.911C15.0074 15.2761 17.0115 12.6325 18.4149 9.90448C15.6032 12.1157 11.6835 14.168 8.62552 13.8798H8.62061Z" fill="white"/>
<path d="M18.4095 9.47705C12.1212 9.68575 4.9466 6.46079 0.701904 2.08299L3.41024 11.3057C4.19812 11.738 5.05001 12.0411 5.94622 12.1803C10.186 12.8312 14.7262 11.8722 18.7099 10.2671C18.0451 10.2324 19.0841 9.45717 18.4144 9.47705H18.4095Z" fill="white"/>
<path d="M12.8008 32.1363C17.3705 38.134 24.55 42 32.6258 42C39.116 42 45.025 39.5055 49.4667 35.4159C39.2144 37.5924 28.1152 25.4925 12.8008 32.1412V32.1363Z" fill="white"/>
<path d="M39.0524 16.3543C39.7677 16.3543 40.3475 15.7692 40.3475 15.0474C40.3475 14.3256 39.7677 13.7405 39.0524 13.7405C38.3372 13.7405 37.7573 14.3256 37.7573 15.0474C37.7573 15.7692 38.3372 16.3543 39.0524 16.3543Z" fill="white"/>
<path d="M52.7812 15.829C53.1066 14.9535 53.5705 14.2117 54.1731 13.5976C54.7756 12.9835 55.4926 12.5093 56.3361 12.1688C57.1736 11.8283 58.1195 11.6642 59.1679 11.6642C60.2163 11.6642 61.1622 11.8344 62.0118 12.1688C62.8613 12.5032 63.5843 12.9835 64.1869 13.5976C64.7894 14.2117 65.2533 14.9596 65.5787 15.829C65.9041 16.7046 66.0667 17.6774 66.0667 18.7474C66.0667 19.8175 65.9041 20.7904 65.5787 21.6537C65.2533 22.5171 64.7894 23.2589 64.1869 23.873C63.5843 24.487 62.8613 24.9613 62.0118 25.2896C61.1622 25.6179 60.2163 25.7821 59.1679 25.7821C58.1195 25.7821 57.1796 25.6179 56.3361 25.2896C55.4926 24.9613 54.7756 24.487 54.1731 23.873C53.5705 23.2589 53.1066 22.5171 52.7812 21.6537C52.4559 20.7904 52.2932 19.8175 52.2932 18.7474C52.2932 17.6774 52.4559 16.6985 52.7812 15.829ZM56.1011 20.3161C56.2035 20.8268 56.3783 21.2889 56.6313 21.6902C56.8783 22.0976 57.2097 22.4198 57.6195 22.663C58.0292 22.9062 58.5473 23.0278 59.1619 23.0278C59.7765 23.0278 60.3007 22.9062 60.7164 22.663C61.1382 22.4198 61.4695 22.0976 61.7226 21.6902C61.9696 21.2828 62.1443 20.8268 62.2528 20.3161C62.3552 19.8054 62.4095 19.2825 62.4095 18.7474C62.4095 18.2124 62.3552 17.6834 62.2528 17.1605C62.1504 16.6437 61.9756 16.1817 61.7226 15.7865C61.4756 15.3913 61.1382 15.0629 60.7164 14.8136C60.2946 14.5644 59.7765 14.4367 59.1619 14.4367C58.5473 14.4367 58.0292 14.5644 57.6195 14.8136C57.2097 15.0629 56.8783 15.3913 56.6313 15.7865C56.3843 16.1877 56.2035 16.6437 56.1011 17.1605C55.9987 17.6774 55.9445 18.2063 55.9445 18.7474C55.9445 19.2886 55.9987 19.8054 56.1011 20.3161Z" fill="white"/>
<path d="M79.4183 23.7332C78.9905 24.4629 78.4302 24.9857 77.7312 25.3019C77.0383 25.6241 76.249 25.7822 75.3754 25.7822C74.3812 25.7822 73.5076 25.5877 72.7484 25.1985C71.9953 24.8094 71.3687 24.2804 70.8806 23.6116C70.3926 22.9428 70.0251 22.1767 69.772 21.3134C69.525 20.45 69.3984 19.5501 69.3984 18.6138C69.3984 17.6775 69.525 16.8445 69.772 16.0055C70.019 15.1664 70.3926 14.4247 70.8806 13.7862C71.3687 13.1478 71.9832 12.631 72.7183 12.2419C73.4534 11.8528 74.315 11.6582 75.2911 11.6582C76.0804 11.6582 76.8335 11.8285 77.5445 12.1629C78.2554 12.5033 78.8158 12.9958 79.2315 13.6586H79.2857V6.90359H82.937V25.4478H79.4605V23.7332H79.4062H79.4183ZM79.2616 17.0999C79.1592 16.5892 78.9845 16.1392 78.7314 15.7501C78.4844 15.361 78.159 15.0448 77.7674 14.8016C77.3697 14.5584 76.8757 14.4368 76.2732 14.4368C75.6706 14.4368 75.1645 14.5584 74.7548 14.8016C74.3451 15.0448 74.0137 15.3671 73.7667 15.7623C73.5196 16.1636 73.3389 16.6135 73.2244 17.1242C73.1099 17.6349 73.0557 18.17 73.0557 18.7233C73.0557 19.2401 73.116 19.763 73.2365 20.2798C73.357 20.7966 73.5498 21.2647 73.8149 21.6721C74.08 22.0795 74.4174 22.4078 74.8211 22.6571C75.2248 22.9064 75.7068 23.034 76.2732 23.034C76.8757 23.034 77.3758 22.9124 77.7795 22.6692C78.1831 22.426 78.5025 22.1038 78.7435 21.6964C78.9845 21.2891 79.1532 20.827 79.2556 20.3041C79.358 19.7812 79.4122 19.2461 79.4122 18.6929C79.4122 18.1396 79.358 17.6045 79.2556 17.0938L79.2616 17.0999Z" fill="white"/>
<path d="M91.1558 22.2253C91.7041 22.7603 92.4934 23.0279 93.5237 23.0279C94.2588 23.0279 94.8975 22.8394 95.4277 22.4685C95.9579 22.0976 96.2833 21.7024 96.4038 21.289H99.6212C99.1091 22.9002 98.3198 24.0493 97.2533 24.7424C96.1869 25.4356 94.9035 25.7821 93.3912 25.7821C92.3428 25.7821 91.4029 25.6119 90.5594 25.2775C89.7158 24.937 89.0049 24.4567 88.4265 23.8365C87.842 23.2103 87.3901 22.4685 87.0768 21.6051C86.7575 20.7418 86.6008 19.7872 86.6008 18.7475C86.6008 17.7078 86.7635 16.8079 87.0889 15.9446C87.4142 15.0812 87.8782 14.3334 88.4807 13.701C89.0832 13.0687 89.8002 12.5701 90.6317 12.2053C91.4631 11.8405 92.385 11.6581 93.3972 11.6581C94.53 11.6581 95.5181 11.877 96.3556 12.3208C97.1931 12.7647 97.886 13.3545 98.4282 14.1023C98.9705 14.8441 99.3561 15.6953 99.5971 16.6499C99.8381 17.6044 99.9225 18.5955 99.8562 19.6352H90.2581C90.3123 20.8269 90.6076 21.6963 91.1619 22.2314L91.1558 22.2253ZM95.2831 15.1663C94.8433 14.6799 94.1805 14.4367 93.2888 14.4367C92.7043 14.4367 92.2223 14.534 91.8367 14.7346C91.4511 14.9353 91.1438 15.1785 90.9088 15.4764C90.6799 15.7682 90.5112 16.0844 90.4208 16.4127C90.3244 16.7411 90.2701 17.039 90.2521 17.2943H96.1989C96.0242 16.358 95.7229 15.6527 95.2831 15.1663Z" fill="white"/>
<path d="M107.96 6.90359L115.63 19.3434H115.684V6.90359H119.468V25.4478H115.425L107.779 13.0323H107.725V25.4478H103.941V6.90359H107.954H107.96Z" fill="white"/>
<path d="M124.27 9.94363V6.90359H127.927V9.94363H124.27ZM127.927 12.023V25.4478H124.27V12.023H127.927Z" fill="white"/>
<path d="M135.825 12.0229V13.8956H135.904C136.368 13.1173 136.97 12.5519 137.705 12.1932C138.44 11.8405 139.2 11.6581 139.971 11.6581C140.947 11.6581 141.748 11.7919 142.375 12.0594C143.001 12.3269 143.496 12.6978 143.857 13.1781C144.219 13.6524 144.472 14.2361 144.616 14.917C144.761 15.6041 144.833 16.358 144.833 17.191V25.4477H141.182V17.8659C141.182 16.7593 141.007 15.9324 140.67 15.3852C140.326 14.838 139.718 14.5644 138.844 14.5644C137.85 14.5644 137.127 14.8623 136.681 15.4582C136.235 16.054 136.012 17.039 136.012 18.407V25.4416H132.355V12.0168H135.832L135.825 12.0229Z" fill="white"/>
<path d="M148.076 27.1077C148.456 27.1077 148.781 27.0347 149.064 26.8888C149.347 26.7429 149.492 26.4146 149.492 25.916V12.023H153.143V26.0984C153.143 26.7915 153.071 27.3874 152.926 27.892C152.782 28.3967 152.529 28.8162 152.179 29.1506C151.83 29.4911 151.354 29.7404 150.751 29.9045C150.149 30.0687 149.389 30.1538 148.462 30.1538C148.034 30.1538 147.648 30.1173 147.305 30.0504V27.0104C147.491 27.0773 147.751 27.1138 148.076 27.1138V27.1077ZM149.492 9.94363V6.90359H153.143V9.94363H149.492Z" fill="white"/>
<path d="M157.697 16.1513C157.752 15.2879 157.963 14.5644 158.342 13.9929C158.722 13.4213 159.198 12.9653 159.782 12.6188C160.367 12.2722 161.023 12.029 161.752 11.877C162.481 11.7311 163.217 11.6581 163.952 11.6581C164.62 11.6581 165.295 11.7068 165.982 11.798C166.669 11.8952 167.296 12.0776 167.862 12.3573C168.428 12.637 168.892 13.02 169.254 13.5125C169.615 14.005 169.796 14.6617 169.796 15.4703V22.4563C169.796 23.0643 169.832 23.6419 169.898 24.1952C169.965 24.7485 170.085 25.168 170.26 25.4416H166.554C166.488 25.2349 166.428 25.0221 166.386 24.8032C166.344 24.5844 166.313 24.3655 166.295 24.1405C165.711 24.7485 165.024 25.168 164.235 25.4112C163.445 25.6544 162.638 25.7761 161.813 25.7761C161.18 25.7761 160.584 25.697 160.035 25.545C159.487 25.393 159.005 25.1498 158.595 24.8154C158.186 24.4871 157.86 24.0736 157.631 23.569C157.402 23.0643 157.282 22.4685 157.282 21.7754C157.282 21.0154 157.414 20.383 157.679 19.8905C157.945 19.3981 158.288 19.0028 158.71 18.711C159.131 18.4192 159.613 18.1942 160.15 18.0483C160.692 17.9024 161.234 17.7868 161.783 17.6956C162.331 17.6105 162.873 17.5375 163.403 17.4889C163.934 17.4342 164.41 17.3612 164.819 17.2579C165.229 17.1545 165.554 17.0025 165.795 16.8019C166.036 16.6012 166.145 16.3155 166.133 15.9324C166.133 15.5372 166.066 15.221 165.94 14.9839C165.813 14.7529 165.639 14.5705 165.428 14.4367C165.211 14.309 164.964 14.2178 164.681 14.1753C164.397 14.1327 164.09 14.1084 163.765 14.1084C163.042 14.1084 162.475 14.2665 162.066 14.5765C161.656 14.8866 161.415 15.4095 161.343 16.1331H157.691L157.697 16.1513ZM166.139 18.8752C165.982 19.015 165.789 19.1244 165.56 19.1974C165.331 19.2764 165.078 19.3373 164.813 19.392C164.548 19.4467 164.271 19.4893 163.976 19.5197C163.687 19.5561 163.391 19.5987 163.102 19.6473C162.825 19.7021 162.56 19.7689 162.289 19.8541C162.024 19.9392 161.789 20.0608 161.596 20.2067C161.397 20.3526 161.24 20.5411 161.12 20.7661C160.999 20.991 160.939 21.2768 160.939 21.6234C160.939 21.9699 160.999 22.2314 161.12 22.4563C161.24 22.6813 161.403 22.8576 161.608 22.9914C161.813 23.1191 162.054 23.2103 162.331 23.265C162.608 23.3197 162.891 23.344 163.18 23.344C163.903 23.344 164.458 23.2224 164.855 22.9792C165.247 22.736 165.542 22.4442 165.729 22.1098C165.916 21.7693 166.036 21.4288 166.078 21.0822C166.121 20.7357 166.145 20.456 166.145 20.2493V18.8752H166.139Z" fill="white"/>
</svg>
