<?xml version="1.0" encoding="utf-8"?>
<!-- Generator: Adobe Illustrator 28.1.0, SVG Export Plug-In . SVG Version: 6.00 Build 0)  -->
<svg version="1.1" id="Layer_1" xmlns="http://www.w3.org/2000/svg" xmlns:xlink="http://www.w3.org/1999/xlink" width="40px" height="40px"
	 viewBox="0 0 40 40" style="enable-background:new 0 0 40 40;" xml:space="preserve">
<style type="text/css">
	.st0{fill:#93C8CE;}
	.st1{fill:#FCC320;}
	.st2{fill:#821F8C;}
	.st3{fill:#FF321D;}
	.st4{fill:#F98E23;}
	.st5{fill:#D12060;}
	.st6{fill:#0070F7;}
	.st7{fill:#5A1FA9;}
	.st8{fill:#3B8BFF;}
	.st9{fill:#5A34E5;}
	.st10{fill:#39C2FF;}
</style>
<circle class="st0" cx="20" cy="20" r="19.6"/>
<g id="XMLID_17_">
	<g>
		<path class="st1" d="M33.8,12.8c0-0.7,0-1.3,0.1-2c0,0,0,0,0-0.1c0.1-0.2,0.2-0.4,0.4-0.6h0.2c0,0.6-0.1,1.2-0.2,1.7
			c-0.2,1.1-0.3,2.4-0.6,3.5C33.7,14.5,33.8,13.6,33.8,12.8z"/>
		<path class="st2" d="M29.5,21.1c-0.2,0-0.3-0.2-0.4-0.2c-0.1-0.1-0.2-0.2-0.3-0.3c0.2,0.1,0.5,0.1,0.7,0.2c-0.1,0-0.2-0.1-0.3-0.2
			c0.4,0,0.8-0.3,1.1-0.7c0,0.2,0,0.2,0,0.4c0.3,0,0.5-0.5,0.6-0.7c0,0.2,0.1,0.3,0.1,0.4c0.5-0.3,0.8-1.2,0.9-1.7
			c0.2,0.2,0.2,0.5,0.3,0.7c0.2-0.3,0.2-1.3,0.1-1.7c0.1,0.1,0.2,0.2,0.2,0.4c0-0.4,0-0.7-0.2-1.1c0.2,0.1,0.2,0.2,0.4,0.2
			c0-0.2-0.2-0.3-0.2-0.5c0-0.2,0.2-0.3,0.4-0.4c-0.1,0-0.2,0-0.3,0.1c0.2-0.3,0.3-0.8,0.3-1.1c-0.2,0.1-0.4,0.2-0.6,0.2
			c0.2-0.5,0.9-0.7,1-1.2c-0.2,0.1-0.5,0.2-0.7,0.3c0.2-0.2,0.3-0.3,0.4-0.5c0.2-0.2,0.4-0.4,0.4-0.7c-0.2,0.2-0.4,0.3-0.7,0.3
			c0.2-0.2,0.3-0.4,0.5-0.7c0.1-0.2,0.4-0.7,0.3-0.9c-0.1,0.1-0.2,0.3-0.4,0.2c0.2-0.3,0.3-0.7,0.5-1c0,0,0,0,0,0.1
			c-0.1,0.7-0.1,1.3-0.1,2c0,0.9-0.1,1.7-0.1,2.6c-0.1,0.4-0.2,0.8-0.3,1.2c-0.4,1.2-0.5,2.5-1.2,3.5c-0.7,0.9-1.4,1.9-2,2.8v0.1
			c-0.3-0.1-0.7-0.2-0.8-0.7c0.2,0,0.4-0.1,0.7-0.1c-0.3,0-0.4-0.2-0.7-0.3c0.4,0.1,0.7-0.2,1-0.2c-0.4,0-0.7-0.2-1.1-0.4
			c0.2,0,0.4,0,0.7,0c-0.4-0.1-1-0.1-1.1-0.5C29,21.1,29.4,21.2,29.5,21.1z"/>
		<path class="st3" d="M30.2,19.8c-0.2,0.3-0.6,0.7-1.1,0.7c-0.1-0.1-0.2-0.2-0.3-0.3c0.2,0,0.2,0,0.4,0c-0.2-0.1-0.4-0.2-0.6-0.3
			c0.1-0.1,0.2-0.1,0.4-0.1c-0.1,0-0.4-0.1-0.5-0.2c-0.2-0.2,0.2-0.2,0.3-0.4c-0.2,0-0.3,0-0.4-0.1c0.2-0.2,0.6-0.3,0.7-0.5
			c-0.2,0.1-0.6,0.2-0.8,0.2c0.2-0.2,0.7-0.4,0.8-0.8c0.1,0,0.2,0,0.2,0.1c0.2,0,0.3,0.1,0.5,0.1c-0.2-0.2-0.6-0.3-0.8-0.6
			c-0.2-0.2-0.5-0.3-0.7-0.5c0.4,0.2,0.7,0.2,1.1,0.3c0.1,0,0.2,0.1,0.3,0.1c-0.2-0.2-0.7-0.2-1-0.4c0.4,0.1,0.8,0.2,1.2,0.2
			c-0.3-0.2-0.6-0.3-0.9-0.5c0.2,0,0.4,0,0.7,0c0.3,0,0.9,0.1,1.1,0c-0.2-0.1-0.5-0.1-0.7-0.2c-0.3-0.1-0.7-0.2-1-0.2
			c0.4,0,0.9,0.1,1.2-0.1c-0.4-0.2-0.8-0.2-1.2-0.2c0.3-0.1,0.7,0,1.1-0.1c0,0,0.2-0.1,0.2-0.1c0-0.2-1-0.2-1.2-0.4
			c0.3,0,0.7,0,1.1,0c0.2,0,0.2,0.1,0.4,0.1c-0.2-0.4-1-0.3-1.4-0.5c0.4-0.2,0.8-0.1,1.2-0.2c-0.3-0.2-1.1-0.2-1.4-0.5
			c0.3,0,0.8,0.2,1.1,0.2c-0.2-0.2-0.7-0.3-0.9-0.7c0.2,0,0.6,0.1,0.8,0.2c-0.1-0.3-0.7-0.5-0.7-0.8c0.2,0,0.7,0.3,0.9,0.4
			c-0.1-0.3-0.6-0.6-0.9-0.8c0.3,0,0.7,0.1,0.9,0.2c-0.2-0.1-0.4-0.2-0.6-0.2c0.3,0,0.7,0,1.1-0.1c-0.2,0-0.5-0.1-0.7-0.2
			c0.1-0.1,0.2-0.1,0.3-0.1c0.2,0,0.5-0.1,0.8-0.2c0.2-0.1,0.3-0.1,0.5-0.1c-0.4,0-0.8,0-1.2-0.2c0.3-0.3,1.1-0.1,1.5-0.2
			c-0.2-0.1-0.5-0.1-0.7-0.3c0.2,0,0.5,0.1,0.7,0.2c0,0-0.3-0.2-0.3-0.3c0.2-0.1,0.5,0.1,0.7,0.2c-0.1-0.2-0.2-0.2-0.3-0.4
			c-0.1-0.1-0.1-0.2-0.2-0.3c0.2-0.1,0.3-0.1,0.6-0.1c0.1,0.1,0.2,0.1,0.2,0c-0.1,0-0.2,0-0.2,0c-0.1,0-0.2-0.1-0.2-0.1
			c0.2-0.2,0.5-0.1,0.7-0.2c-0.2,0-0.5,0-0.7,0c0.1-0.3,0.7-0.2,0.9-0.5c-0.2,0.1-0.7,0.2-0.9,0c0.4-0.3,1-0.2,1.4-0.6
			c-0.4,0.1-0.7,0-1.1,0.1c0.2-0.1,0.7-0.2,0.8-0.4c-0.2,0-0.3,0.1-0.6,0c0.1-0.2,0.3-0.3,0.5-0.4c-0.1,0-0.2,0-0.3,0
			c0.1-0.2,0.3-0.1,0.5-0.2c-0.1,0-0.2,0-0.2,0c0.1-0.1,0.2-0.1,0.4-0.1c0.1,0.1,0.2,0.2,0.2,0.4c0.2,0.7-0.1,1.2-0.2,1.9
			c-0.2,0.3-0.3,0.7-0.5,1c0.2,0,0.2-0.2,0.4-0.2c0,0.2-0.2,0.7-0.3,0.9c-0.1,0.2-0.3,0.4-0.5,0.7c0.2,0,0.5-0.2,0.7-0.3
			c0,0.2-0.3,0.5-0.4,0.7c-0.1,0.2-0.2,0.3-0.4,0.5c0.2-0.1,0.5-0.2,0.7-0.3c-0.1,0.5-0.8,0.8-1,1.2c0.2-0.1,0.4-0.2,0.6-0.2
			c0,0.3-0.2,0.8-0.3,1.1c0.1,0,0.2-0.1,0.3-0.1c-0.1,0.2-0.4,0.2-0.4,0.4c0,0.2,0.2,0.2,0.2,0.5c-0.2,0-0.2-0.1-0.4-0.2
			c0.2,0.3,0.2,0.7,0.2,1.1c-0.1-0.2-0.2-0.3-0.2-0.4c0.1,0.4,0.2,1.4-0.1,1.7c-0.2-0.2-0.2-0.5-0.3-0.7c-0.1,0.6-0.4,1.5-0.9,1.7
			C31,19.6,31,19.5,31,19.4c-0.1,0.2-0.2,0.7-0.6,0.7C30.2,20.1,30.2,19.9,30.2,19.8z"/>
		<path class="st3" d="M28.2,18c0.2,0,0.4,0.2,0.6,0.2c-0.2-0.1-0.3-0.2-0.4-0.2c0.2-0.1,0.6,0.1,0.8,0.2c-0.2,0.2-0.6,0.2-0.8,0.2
			C28.3,18.1,28.2,18.1,28.2,18z"/>
		<path class="st4" d="M24.6,15.8c-0.2,0.1-0.4,0.2-0.6,0.2l0,0c0.4-0.2,0.7-0.5,0.9-0.8c-0.1,0-0.2,0-0.2,0
			c0.2-0.2,0.4-0.5,0.7-0.7c-0.1,0-0.1,0-0.2,0c0.2-0.2,0.7-0.5,1-0.7c-0.1,0-0.2-0.1-0.3,0c0.2-0.4,0.8-0.4,1.1-0.8
			c-0.2,0-0.4,0-0.6,0.1c0.1-0.5,0.7-0.7,0.9-1.1c-0.2,0-0.2,0-0.3,0.1c0.7-0.5,1.6-0.7,2.1-1.5c-0.1,0-0.2,0-0.2,0
			c0.6-0.6,1.6-0.7,2-1.4h-0.1c0.4-0.5,1.2-0.9,1.8-1.1c0.6-0.1,1,0,1.2,0.4c-0.2,0-0.3,0-0.4,0.1c0.1,0.1,0.2,0.1,0.2,0
			c-0.2,0.1-0.4,0-0.5,0.2c0.1,0,0.2,0,0.3,0c-0.2,0.2-0.4,0.2-0.5,0.4c0.2,0,0.3-0.1,0.6,0c-0.2,0.2-0.6,0.2-0.8,0.4
			c0.3-0.1,0.7,0,1.1-0.1c-0.4,0.4-1.1,0.2-1.4,0.6c0.2,0.1,0.7,0,0.9,0c-0.2,0.2-0.8,0.2-0.9,0.5c0.2,0,0.5,0,0.7,0
			c-0.2,0.2-0.6,0.1-0.7,0.2c0.1,0,0.2,0.1,0.2,0.1c-0.2,0-0.4,0-0.6,0.1c0.1,0.1,0.2,0.2,0.2,0.3c0.1,0.2,0.2,0.2,0.3,0.4
			c-0.2-0.1-0.5-0.2-0.7-0.2c0.1,0.2,0.3,0.4,0.5,0.6c-0.2-0.1-0.4-0.2-0.7-0.2c0.2,0.2,0.5,0.2,0.7,0.3c-0.4,0.1-1.1-0.1-1.5,0.2
			c0.4,0,0.9,0,1.3,0c-0.2,0.1-0.3,0.1-0.5,0.1c-0.2,0.1-0.5,0.1-0.8,0.2c-0.1,0-0.2,0-0.3,0.1c0.2,0.1,0.5,0.2,0.7,0.2
			c-0.3,0.2-0.7,0.1-1.1,0.1c0.2,0.1,0.3,0.2,0.6,0.2c-0.3-0.1-0.7-0.2-0.9-0.2c0.2,0.2,0.8,0.4,0.9,0.8c-0.2-0.2-0.7-0.5-0.9-0.4
			c0,0.3,0.6,0.5,0.7,0.8c-0.2-0.1-0.6-0.2-0.8-0.2c0.2,0.2,0.6,0.4,0.9,0.7c-0.3-0.1-0.7-0.2-1.1-0.2c0.3,0.3,1.1,0.2,1.4,0.5
			c-0.4,0.1-0.9,0.1-1.2,0.2c0.3,0.2,1.1,0.1,1.4,0.5c-0.2,0-0.2-0.1-0.4-0.1c-0.3,0-0.7,0-1.1,0c0.2,0.1,1.2,0.2,1.2,0.4
			c0,0-0.2,0.1-0.2,0.1c-0.3,0.1-0.7,0.1-1.1,0.1c0.4,0.1,0.8,0.1,1.2,0.2c-0.3,0.1-0.9,0.1-1.2,0.1c0.3,0.1,0.7,0.2,1,0.2
			c0.2,0.1,0.5,0.1,0.7,0.2c-0.2,0.2-0.8,0-1.1,0c-0.2,0-0.4,0-0.7,0c0.3,0.2,0.6,0.3,0.9,0.5c-0.4,0-0.8-0.2-1.2-0.2
			c0.3,0.2,0.7,0.2,1,0.4c-0.2,0-0.2-0.1-0.3-0.1c-0.4-0.1-0.8-0.2-1.1-0.3c0.2,0.2,0.5,0.3,0.7,0.5c0.2,0.2,0.7,0.3,0.8,0.6
			c-0.2,0-0.3-0.1-0.5-0.1c-0.1,0-0.1,0-0.2-0.1l0,0l0,0c-0.2-0.1-0.7-0.2-0.8-0.2c0.2,0.1,0.3,0.2,0.4,0.2c-0.2,0-0.4-0.2-0.6-0.2
			c0,0.1,0.1,0.2,0.2,0.2s0.1,0.2,0.2,0.2c-0.3,0-0.6-0.4-0.9-0.5c0.2,0.2,0.4,0.2,0.5,0.4c-0.2-0.1-0.7-0.2-0.8-0.2
			c0.2,0.2,0.7,0.5,0.7,0.7c-0.3-0.2-0.7-0.5-1.1-0.6c0.2,0.2,0.4,0.4,0.4,0.6c-0.3-0.1-0.6-0.4-0.8-0.5c0.1,0.2,0.3,0.2,0.4,0.5
			c-0.2-0.1-0.4-0.2-0.7-0.2l0,0c-0.2,0-0.4-0.1-0.6-0.2c0.2-0.1,0.3-0.1,0.3-0.2c-0.2-0.1-0.5-0.1-0.8-0.2c0.2-0.1,0.3-0.1,0.5-0.2
			c-0.2,0-0.2,0-0.4-0.1c-0.2-0.1-0.2-0.3-0.2-0.6c-0.1,0.1-0.2,0-0.3,0c0-0.2,0-0.2,0-0.4c-0.1,0-0.2,0-0.2,0c0-0.1,0-0.2,0-0.3
			c-0.1,0-0.2,0-0.2,0c0-0.2,0.2-0.2,0.2-0.4c-0.1,0-0.2,0-0.3,0C24.4,16.1,24.6,15.9,24.6,15.8z"/>
		<path class="st5" d="M26.9,18.9c-0.1-0.2-0.2-0.3-0.4-0.5c0.2,0.2,0.5,0.5,0.8,0.5c0-0.2-0.2-0.5-0.4-0.6c0.3,0,0.7,0.4,1.1,0.6
			c-0.1-0.3-0.5-0.5-0.7-0.7c0.2,0,0.7,0.1,0.8,0.2c-0.1-0.2-0.3-0.2-0.5-0.4c0.3,0.1,0.5,0.5,0.9,0.5c-0.1-0.1-0.1-0.1-0.2-0.2
			c0.2-0.1,0.7-0.2,0.8-0.2l0,0c-0.1,0.4-0.6,0.6-0.8,0.8c0.2,0,0.6-0.1,0.8-0.2c-0.2,0.2-0.5,0.3-0.7,0.5c0.2,0.1,0.3,0,0.4,0.1
			c-0.1,0.2-0.5,0.2-0.3,0.4c0.1,0.1,0.4,0.1,0.5,0.2c-0.2,0.1-0.2,0-0.4,0.1c0.2,0.1,0.4,0.2,0.6,0.3c-0.2,0-0.2,0-0.4,0
			c0.1,0.1,0.2,0.2,0.3,0.3s0.2,0.2,0.3,0.2c-0.2,0-0.6,0-0.7-0.2c0.1,0.2,0.2,0.2,0.3,0.3c0.1,0.2,0.2,0.2,0.4,0.2
			c-0.2,0.1-0.6-0.1-0.7-0.2c0.2,0.4,0.7,0.4,1.1,0.5c-0.2,0-0.4,0-0.7,0c0.3,0.2,0.7,0.4,1.1,0.4c-0.3,0-0.7,0.3-1,0.2
			c0.2,0.1,0.4,0.4,0.7,0.3c-0.2,0-0.4,0.1-0.7,0.1c0.1,0.4,0.4,0.6,0.8,0.7c0.3,0.1,0.6,0,0.8-0.2c-0.2,0.4-1,0.3-1.3,0.5
			c0.3,0.1,0.7,0.3,1,0.5c-0.2,0.1-0.7,0.1-1,0c0.2,0.2,0.6,0.5,0.7,0.8c-0.2,0-0.4-0.2-0.6-0.2c0,0.3,0.2,0.6,0.2,0.9
			c-0.2,0-0.2-0.2-0.4-0.2c0,0.4,0.1,0.7,0.1,1.1c-0.1,0-0.2-0.2-0.2-0.2c0,0.3,0,0.7-0.2,1c0-0.1-0.1-0.2-0.2-0.2
			c0,0.2-0.3,0.7-0.3,1c0-0.5-0.1-0.8-0.2-1.2c0.1,0,0.2,0.1,0.2,0.2c0.1-0.4,0-1.1-0.2-1.5c0.1,0.1,0.2,0.2,0.3,0.2
			c0-0.6-0.2-1.1-0.3-1.6c0.1,0.1,0.2,0.1,0.3,0.1c-0.2-0.2-0.4-0.5-0.5-0.8c0.2,0,0.3,0.1,0.5,0.1c0-0.3-0.4-0.7-0.6-1
			c0.1,0,0.2,0,0.3,0c-0.2-0.2-0.4-0.6-0.7-0.7c0.1,0,0.2,0,0.2-0.1c-0.1-0.2-0.3-0.2-0.4-0.4c0.1,0,0.2,0,0.2-0.1
			c-0.2-0.2-0.5-0.2-0.7-0.3c0.1,0,0.2-0.1,0.2-0.1c-0.2-0.2-0.4-0.4-0.7-0.5c0.2,0,0.2,0,0.4-0.1c-0.2-0.2-0.4-0.2-0.7-0.3
			c0.1,0,0.2-0.1,0.2-0.1c-0.2-0.2-0.4-0.2-0.6-0.3c0.2-0.1,0.3,0,0.5-0.2c-0.2-0.1-0.4-0.1-0.6-0.2c-0.3-0.2,0-0.1,0.1-0.3
			C26.5,18.6,26.7,18.8,26.9,18.9z"/>
		<path class="st6" d="M25.9,31.6c-0.2,0.7-0.7,1.6-1.2,2.5c0.4-1.2,0-1.9-0.4-4c-0.4-2.2,1.3-2.4,2.1-3.4c0.2-0.3,0.3-0.6,0.3-0.7
			c0.1,0.2,0.2,0.9-0.2,2.4c-0.6,1.7-0.6,3-0.6,3l0,0C26,31.4,26,31.5,25.9,31.6z"/>
		<path class="st7" d="M26.5,29.6c0.2,0.1,0.3,0.5,0.4,0.7c0-0.4-0.2-0.8-0.2-1.2c0.2,0,0.2,0.1,0.3,0.2c0-0.2-0.2-0.5-0.2-0.7
			c0.2,0,0.2,0,0.4,0.1c0-0.2-0.1-0.4-0.1-0.6c0.1,0,0.2,0,0.3,0.1c0-0.2,0-0.4-0.1-0.6c0.2-0.1,0.3,0.2,0.5,0.2
			c0-0.3-0.2-0.7-0.4-0.9c0.2-0.1,0.5-0.1,0.6,0.1c0.2-0.3-0.2-0.6-0.2-0.9c0.2,0,0.3,0.2,0.4,0.2c0-0.2-0.1-0.4-0.1-0.6
			c0.1,0,0.3,0.4,0.4,0.5c0.1-0.2,0-0.7,0-0.9c0.2,0.4,0.3,1.1,0.2,1.5c-0.1-0.1-0.2-0.2-0.2-0.2c0.2,0.4,0.2,0.7,0.2,1.2l0,0
			c-0.1-0.2-0.1-0.2-0.2-0.2c0.2,0.3,0.2,0.8,0.3,1.2c-0.1-0.2-0.1-0.3-0.3-0.3c0,0.2,0.1,0.5,0.1,0.7c0,0.2-0.1,0.3-0.2,0.5
			c-0.1,0-0.2-0.2-0.2-0.2c-0.1,0.6-0.2,1-0.4,1.5c0-0.1-0.1-0.2-0.2-0.3c-0.2,0.3-0.2,0.6-0.4,0.9c0-0.2-0.1-0.2-0.2-0.2
			c0,0.2-0.2,0.3-0.2,0.5c0-0.2,0-0.5-0.2-0.6c-0.1,0.3-0.3,0.5-0.7,0.7c0-0.1,0-0.2,0-0.2c0-0.1,0.1-0.2,0.1-0.3
			C26.4,30.3,26.5,29.7,26.5,29.6L26.5,29.6z"/>
		<path class="st1" d="M25.2,24.9c0,0,0.4,1.1-0.7,1.3c-1,0.2-1.2-0.9-1.2-0.9l0.4-0.1c0,0,0.2,0.6,0.6,0.5s0.2-0.7,0.2-0.7
			L25.2,24.9L25.2,24.9z"/>
		<path class="st8" d="M24.6,33.5c0-2-1.6-3.6-2.5-4.7c-0.6-0.8-1.2-2.4-1.1-3.8c0.1-1.2,0.7-2.3,2.1-2.8c0.7-0.2,1.1-0.2,1.6-0.2
			l0,0l0,0l0,0l0,0c0.5,0.1,0.9,0.3,1.2,0.6c0.6,0.5,0.9,1.2,1.1,1.8c0.1,0.2,0.1,0.4,0,0.6c-0.2,0.4-0.9,0.2-1,0.1l0,0l0,0
			c0,0-1.1-0.6-2.4-0.2c-1.2,0.3-1,2.2-1,2.2s0,0.7,0.5,2C23.6,30.2,24.7,32,24.6,33.5z"/>
		<path class="st9" d="M24.6,33.5c0.1-1.6-1.1-3.4-1.5-4.5c-0.5-1.4-0.5-2-0.5-2s0.2-0.6,1.1-0.4c1.4,0.2,1.7-0.7,1.9-1.1
			c0.2-0.3,0.4-0.6,0.4-0.6l0,0l0,0c0.1,0,0.7,0.3,0.7,0.9c0,0.2-0.1,0.5-0.3,0.7c-0.8,1.1-2.5,1.2-2.1,3.4c0.4,2.1,0.8,2.7,0.4,4
			c-0.2,0.2-0.2,0.4-0.4,0.6l0,0C24.5,34.3,24.6,33.9,24.6,33.5L24.6,33.5z"/>
		<path class="st7" d="M23.3,25.3c0,0,0.2,1.1,1.2,0.9s0.7-1.3,0.7-1.3h-0.6c0,0,0.2,0.7-0.2,0.7c-0.4,0.1-0.6-0.5-0.6-0.5
			L23.3,25.3z M25.7,25.6c-0.2,0.3-0.5,1.1-1.9,1.1c-0.9-0.1-1.1,0.4-1.1,0.4s-0.2-1.8,1-2.2c1.2-0.3,2.4,0.2,2.4,0.2
			S25.8,25.2,25.7,25.6z"/>
		<path class="st6" d="M23.1,22.2c-1.5,0.5-2,1.6-2.1,2.8l0,0c0,0-0.6,3.2,1.5,6.2c0.2,0.3,0.3,0.6,0.5,0.8c0.7,2-1.1,2.5-1.1,2.5
			l0,0c0-0.2,0-0.2-0.1-0.4l0,0c-0.2-1.2-1.8-4.1-1.5-8.6c0.2-4.1,3.8-3.7,4.4-3.6C24.4,21.9,23.8,21.9,23.1,22.2z"/>
		<path class="st1" d="M21.8,16.7c0-0.2,0.2-0.2,0.2-0.3c0.9-0.6,1.6-1.5,2.1-2.4c0.7-0.9,1.2-1.9,1.8-2.9c0,0.2,0,0.3,0,0.5
			c0.2-0.1,0.4-0.3,0.5-0.5c0.2,0.4,0.9-0.5,1.1-0.6c0,0,0,0.1,0.1,0.1c0.2-0.2,0.3-0.4,0.6-0.6c0.2-0.2,0.6-0.4,0.8-0.6
			c0.6-0.4,1.1-0.8,1.6-1.2c0.7-0.7,1.6-1.3,2.5-1.5c0.7-0.1,1.1,0.5,1.2,1.1s0.2,1.5,0.2,2.2h-0.2c-0.2,0.2-0.2,0.4-0.4,0.6
			c0.1-0.6,0.3-1.2,0.2-1.9c-0.1-0.2-0.1-0.3-0.2-0.4C33.6,8,33.2,7.9,32.6,8c-0.6,0.1-1.5,0.6-1.8,1.1h0.1c-0.4,0.7-1.5,0.9-2,1.4
			c0.1,0,0.2,0,0.2,0c-0.6,0.7-1.4,1-2.1,1.5c0.1-0.1,0.2-0.1,0.3-0.1c-0.2,0.4-0.8,0.6-1,1c0.2-0.1,0.3-0.1,0.6-0.1
			c-0.2,0.4-0.8,0.5-1.1,0.8c0.1,0,0.2,0,0.3,0c-0.3,0.2-0.7,0.4-1,0.7c0.1,0,0.2,0,0.2,0c-0.2,0.2-0.5,0.5-0.7,0.7
			c0.1,0,0.2,0,0.2,0c-0.2,0.3-0.6,0.7-0.9,0.8l0,0c0.2-0.1,0.4-0.1,0.6-0.2c0,0.2-0.2,0.3-0.4,0.5c0.1,0,0.2,0,0.3,0
			c-0.1,0.2-0.2,0.2-0.2,0.4c0.1,0,0.2,0,0.2,0c0,0.1,0,0.2,0,0.3c0.1,0,0.2,0,0.2,0c0,0.2,0,0.2,0,0.4c0.1,0,0.2,0,0.3,0
			c0,0.2,0.1,0.5,0.2,0.6c-0.2-0.1-0.3-0.1-0.5-0.1c0.1-0.1,0.2-0.2,0.2-0.2c-0.2,0-0.3,0-0.5,0c0.1-0.1,0.1-0.1,0.2-0.2
			c-0.2,0-0.2,0-0.4,0c0.1-0.1,0.2-0.2,0.2-0.2c-0.2,0-0.4,0-0.6,0.2c0.1-0.1,0.1-0.2,0.2-0.2c-0.2,0.1-0.5,0.2-0.7,0.2
			c0.1-0.2,0.2-0.2,0.4-0.2c-0.2,0-0.6,0.1-0.8-0.1c0.1,0,0.2-0.2,0.2-0.2c-0.2-0.1-0.4,0.1-0.7,0.1c0.1-0.1,0.2-0.2,0.2-0.3
			C22.2,16.4,22.1,16.7,21.8,16.7z"/>
		<path class="st8" d="M21.9,34.5L21.9,34.5c0,0,1.8-0.6,1.1-2.5c1.2,2.5,0.2,4-0.2,4.4c0,0,0,0-0.1,0.1c-1.5,1.1-2.5,0.9-2.7,0.4
			c0,0,0.5,0,1.1-0.6c0.3-0.2,0.7-0.7,0.7-1.1l0,0C21.9,35,21.9,34.7,21.9,34.5z"/>
		<path class="st9" d="M21.1,35.6c0.3,0.2,0.6-0.2,0.6-0.2c-0.2,0.7-0.8,0.5-0.9,0.4C20.5,35.6,20.8,35.4,21.1,35.6z"/>
		<path class="st10" d="M21,24.9c-0.1,1.5,0.6,3.1,1.1,3.8c0.8,1.1,2.5,2.8,2.5,4.7l0,0c0,0.4-0.1,0.8-0.3,1.1l0,0
			C24.2,34.8,24,35,24,35.1c-0.2,0.3-0.6,0.7-0.8,0.9l0,0l0,0c-0.2,0.2-0.3,0.2-0.4,0.4c0.5-0.4,1.5-2,0.2-4.4
			c-0.2-0.2-0.3-0.6-0.5-0.8C20.4,28.1,21,24.9,21,24.9L21,24.9z"/>
		<path class="st9" d="M11.5,25.3c-0.1,0.1-0.2,0.2-0.3,0.2c0-0.6,0.2-1.1,0.3-1.6c0,0-0.2,0.1-0.2,0c0.2-0.2,0.4-0.5,0.5-0.8
			c-0.2,0-0.3,0.1-0.5,0.1c0-0.3,0.4-0.7,0.6-1c-0.1,0-0.2,0-0.3,0c0.2-0.2,0.4-0.6,0.7-0.7c-0.1,0-0.2,0-0.2-0.1
			c0.1-0.2,0.3-0.2,0.4-0.4c-0.1,0-0.2,0-0.2-0.1c0.2-0.2,0.5-0.2,0.7-0.3c-0.1,0-0.2-0.1-0.2-0.1c0.2-0.2,0.4-0.4,0.7-0.5
			c-0.2,0-0.2,0-0.4-0.1c0.2-0.2,0.4-0.2,0.7-0.3c-0.1,0-0.2-0.1-0.2-0.1c0.2-0.2,0.4-0.2,0.6-0.3c-0.2-0.1-0.3,0-0.5-0.2
			c0.2-0.1,0.4-0.1,0.6-0.2c0.3-0.2,0-0.1-0.1-0.3l0,0c0.2,0,0.4-0.1,0.6-0.2c-0.2-0.1-0.3-0.1-0.3-0.2c0.2-0.1,0.5-0.1,0.8-0.2
			c-0.2-0.1-0.3-0.1-0.5-0.2c0.2,0,0.2,0,0.4-0.1c0.2-0.1,0.3-0.1,0.5-0.1c-0.1-0.1-0.2-0.2-0.2-0.2c0.2,0,0.3,0,0.5,0
			c-0.1-0.1-0.1-0.1-0.2-0.2c0.2,0,0.2,0,0.4,0c-0.1-0.1-0.2-0.2-0.2-0.2c0.2,0,0.4,0,0.6,0.2c-0.1-0.1-0.1-0.2-0.2-0.2
			c0.2,0.1,0.5,0.2,0.7,0.2c-0.1-0.2-0.2-0.2-0.4-0.2c0.2,0,0.6,0.1,0.8-0.1c-0.1,0-0.2-0.2-0.2-0.2c0.2-0.1,0.4,0.1,0.7,0.1
			c-0.1-0.1-0.2-0.2-0.2-0.3c0.3-0.1,0.5,0.2,0.8,0.2c0-0.2-0.2-0.2-0.2-0.3c0,0,0,0,0-0.1c0.2,0.2,0.5,0.3,0.7,0.4
			c0-0.1,0-0.2,0-0.2c0.2,0,0.2,0.2,0.4,0.2c0-0.1,0.1-0.2,0.1-0.3c0.1,0.1,0.2,0.1,0.2,0.2c0-0.1,0.1-0.2,0.1-0.3
			c0.2,0,0.3,0.2,0.5,0.2c0-0.2,0.2-0.5,0.2-0.6c0,0.2,0.2,0.5,0.2,0.6c0.2-0.1,0.2-0.2,0.5-0.2c0,0.1,0.1,0.2,0.1,0.3
			c0.1,0,0.2-0.1,0.2-0.2c0,0.1,0.1,0.2,0.1,0.3c0.1-0.1,0.2-0.2,0.4-0.2c0,0.1,0,0.2,0,0.2c0.2-0.1,0.5-0.2,0.7-0.4c0,0,0,0,0,0.1
			c-0.1,0.1-0.2,0.2-0.2,0.3c0.2,0,0.5-0.2,0.8-0.2c-0.1,0.1-0.2,0.2-0.2,0.3c0.2,0,0.4-0.1,0.7-0.1c0,0-0.1,0.2-0.2,0.2
			c0.2,0.1,0.6,0,0.8,0.1c-0.2,0.1-0.3,0.2-0.4,0.2c0.2,0,0.5-0.1,0.7-0.2c-0.1,0.1-0.1,0.2-0.2,0.2c0.2-0.1,0.4-0.1,0.6-0.2
			c0,0.1-0.1,0.2-0.2,0.2c0.2,0,0.2,0,0.4,0c-0.1,0.1-0.1,0.2-0.2,0.2c0.2,0,0.3,0,0.5,0c-0.1,0.1-0.2,0.2-0.2,0.2
			c0.2,0,0.3,0.1,0.5,0.1s0.2,0.1,0.4,0.1c-0.2,0.1-0.3,0.1-0.5,0.2c0.2,0.1,0.6,0.1,0.8,0.2c0,0.2-0.2,0.2-0.3,0.2
			c0.2,0.1,0.4,0.2,0.6,0.2l0,0c-0.1,0.2-0.4,0.1-0.1,0.3c0.2,0.1,0.4,0.2,0.6,0.2c-0.2,0.2-0.3,0.1-0.5,0.2
			c0.2,0.1,0.5,0.2,0.6,0.3c-0.1,0.1-0.2,0.1-0.2,0.1c0.2,0.2,0.4,0.2,0.7,0.3c-0.1,0-0.2,0.1-0.4,0.1c0.2,0.1,0.5,0.3,0.7,0.5
			c-0.1,0-0.2,0.1-0.2,0.1c0.2,0.1,0.6,0.2,0.7,0.3c-0.1,0-0.2,0.1-0.2,0.1c0.1,0.2,0.3,0.2,0.4,0.4c-0.1,0.1-0.2,0.1-0.2,0.1
			c0.2,0.2,0.5,0.5,0.7,0.7c-0.2,0-0.2,0-0.3,0c0.2,0.2,0.6,0.7,0.6,1c-0.2,0-0.3-0.1-0.5-0.1c0.1,0.3,0.4,0.5,0.5,0.8
			c-0.1,0.1-0.2,0-0.3-0.1c0,0.6,0.3,1,0.3,1.6c-0.1,0-0.2-0.1-0.3-0.2c0,0.2,0.1,0.7,0,0.9c-0.1-0.1-0.3-0.5-0.4-0.5
			c0,0.2,0.2,0.3,0.1,0.6c-0.2-0.1-0.2-0.2-0.4-0.2c0.1,0.3,0.4,0.6,0.2,0.9c-0.2-0.2-0.4-0.2-0.6-0.1c0.2,0.2,0.4,0.6,0.4,0.9
			c-0.2-0.1-0.2-0.3-0.5-0.2c0.1,0.2,0.1,0.4,0.1,0.6C27.3,28,27.2,28,27.1,28c0.1,0.2,0.2,0.3,0.1,0.6c-0.1-0.1-0.2-0.1-0.4-0.1
			c0.1,0.2,0.2,0.5,0.2,0.7c-0.1-0.1-0.2-0.2-0.3-0.2c0,0.4,0.2,0.8,0.2,1.2c-0.1-0.2-0.1-0.7-0.4-0.7l0,0c0,0-0.1,0.7-0.4,1.6l0,0
			c0,0,0-1.3,0.6-3c0.4-1.4,0.2-2.1,0.2-2.4c0-0.6-0.7-0.8-0.7-0.9c0.1,0,0.8,0.3,1-0.1c0.2-0.2,0.1-0.6,0.1-0.8
			c0.1,0,0.1-0.1,0.2-0.1c0-0.2-0.5-0.7-0.1-0.6c0-0.2-0.2-0.4-0.2-0.5c0.1-0.1,0.2-0.1,0.2-0.1c0-0.3-0.5-0.4-0.5-0.7
			c0.1,0,0.2-0.1,0.3-0.1c-0.1-0.2-0.3-0.2-0.5-0.4c0.1-0.1,0.2-0.1,0.3-0.2c-0.2-0.1-0.5-0.2-0.7-0.2c0.2-0.2-0.1-0.2-0.2-0.3
			c-0.1,0.1-0.2,0-0.2-0.1c0.1-0.1,0.2-0.2,0.3-0.2v-0.1c-0.2-0.1-0.7-0.1-0.8-0.2c0.2-0.1,0.3,0,0.4-0.2c-0.2-0.2-0.7-0.2-1-0.2
			c0.2-0.1,0.7,0,0.7-0.2c-0.6,0-1.1-0.2-1.6-0.2c0.1-0.1,0.3-0.2,0.4-0.3c-0.3,0-0.7,0-1-0.1c0.2-0.1,0.2-0.2,0.2-0.2
			c-0.2,0-0.5,0-0.7,0c0.1,0,0.2-0.1,0.3-0.2c-0.2,0-0.4,0-0.7,0c0.1-0.1,0.2-0.2,0.2-0.3c-0.2,0-0.5,0.1-0.7,0.2
			c0.1-0.1,0.1-0.2,0.1-0.2c-0.2,0-0.3,0.1-0.4,0.2c0-0.1,0-0.2,0-0.2c-0.2,0-0.3,0.2-0.5,0.2c0-0.2,0-0.3-0.1-0.5
			c-0.2,0.1-0.3,0.2-0.5,0.3c0-0.1-0.1-0.2-0.1-0.2C20,18,20,18.1,20,18.2c-0.1-0.2-0.1-0.3-0.2-0.5c-0.1,0.2-0.1,0.6-0.2,0.7
			c-0.1-0.2-0.1-0.5-0.2-0.7c-0.1,0.2-0.1,0.4-0.2,0.5c-0.1-0.1-0.1-0.2-0.2-0.3c0,0.1-0.1,0.2-0.1,0.2c-0.2-0.1-0.3-0.2-0.5-0.3
			c0,0.2-0.1,0.3-0.1,0.5c-0.2-0.1-0.3-0.2-0.5-0.2c0,0.1,0,0.2,0,0.2c-0.2-0.1-0.2-0.2-0.4-0.2c0,0.1,0,0.2,0.1,0.2
			c-0.2-0.1-0.5-0.2-0.7-0.2c0,0.1,0.1,0.2,0.2,0.3c-0.2,0-0.4,0-0.7,0c0.1,0.1,0.2,0.2,0.3,0.2c-0.2,0.1-0.5,0-0.7,0
			c0,0.2,0.1,0.2,0.2,0.2c-0.2,0.1-0.7,0.1-1,0.1c0.1,0.2,0.3,0.2,0.4,0.3c-0.6,0.1-1.1,0.2-1.6,0.2c0,0.2,0.6,0.2,0.7,0.2
			c-0.3,0-0.7,0.1-1,0.2c0.1,0.1,0.2,0.1,0.4,0.2c-0.2,0.2-0.6,0.2-0.8,0.2v0.1c0.2,0.1,0.2,0.1,0.3,0.2c-0.1,0.1-0.2,0.2-0.2,0.1
			c-0.2,0.1-0.5,0.2-0.2,0.3c-0.2,0.1-0.5,0.2-0.7,0.2c0.1,0.1,0.2,0.2,0.3,0.2c-0.2,0.2-0.4,0.2-0.5,0.4c0.1,0.1,0.2,0.1,0.3,0.1
			c0,0.3-0.5,0.4-0.5,0.7c0.1,0,0.2,0,0.2,0.1c-0.1,0.2-0.2,0.3-0.2,0.5c0.4-0.1-0.1,0.4-0.1,0.6c0.1,0,0.1,0.1,0.2,0.1
			c0.1,0.2-0.2,0.7,0.1,0.8c0.2,0.4,0.9,0.2,1,0.1c-0.1,0-0.7,0.3-0.7,0.8c0,0.1-0.3,0.7,0.2,2.4c0.5,1.6,0.6,2.9,0.6,3
			c-0.3-1-0.4-1.6-0.4-1.6l0,0c0.3,0.2,0.2,0.6,0.2,0.8c0-0.4,0.2-0.8,0.2-1.2c-0.2,0-0.2,0.1-0.3,0.2c0-0.2,0.2-0.5,0.2-0.7
			c-0.2,0-0.2,0-0.4,0.1c0-0.2,0.1-0.4,0.1-0.6c-0.1,0-0.2,0-0.3,0.1c0-0.2,0-0.4,0.1-0.6c-0.2-0.1-0.3,0.2-0.5,0.2
			c0-0.3,0.2-0.7,0.4-0.9c-0.2-0.1-0.5-0.1-0.6,0.1c-0.2-0.3,0.2-0.6,0.2-0.9c-0.2,0-0.3,0.2-0.4,0.2c0-0.2,0.1-0.4,0.1-0.6
			c-0.1,0-0.3,0.4-0.4,0.5C11.5,26,11.5,25.5,11.5,25.3z"/>
		<path class="st7" d="M20.7,35.7c0.2,0.2,0.7,0.2,0.9-0.4c0,0-0.2,0.3-0.6,0.2C20.8,35.4,20.5,35.6,20.7,35.7z M18.4,35.3
			c0.2,0.7,0.8,0.5,0.9,0.4c0.2-0.2-0.1-0.3-0.4-0.2C18.6,35.6,18.4,35.3,18.4,35.3z M18.9,36.4c-0.3-0.2-0.7-0.7-0.7-1.1
			c-0.2-0.5,0.1-1,1-1.1c0.5-0.1,0.9,0,0.9,0s0.4,0,0.9,0c0.9,0.1,1.1,0.6,1,1.1c-0.1,0.4-0.5,0.9-0.7,1.1C20.5,37,20.1,37,20.1,37
			S19.5,36.9,18.9,36.4z"/>
		<path class="st9" d="M19.3,35.7c-0.2,0.2-0.7,0.2-0.9-0.4c0,0,0.2,0.3,0.6,0.2C19.2,35.4,19.5,35.6,19.3,35.7z"/>
		<path class="st10" d="M19.1,34.2c-0.9,0.1-1.1,0.6-1,1.1l0,0c-0.1-0.2-0.1-0.5-0.1-0.7c0-0.2,0.1-0.3,0.1-0.5
			c0.1-0.2,0.2-0.5,0.5-0.6c0.5-0.2,1.3-0.2,1.3-0.2s0.9-0.1,1.3,0.2c0.2,0.2,0.4,0.3,0.5,0.7l0,0c0.1,0.1,0.1,0.2,0.1,0.4
			c0,0.2,0,0.5-0.1,0.7l0,0c0.2-0.5-0.1-1-1-1.1c-0.5-0.1-0.9,0-0.9,0S19.5,34.1,19.1,34.2z"/>
		<path class="st8" d="M18.1,34.5c0,0.2,0,0.5,0.1,0.7l0,0c0.1,0.4,0.5,0.9,0.7,1.1C19.5,37,20,37,20,37c-0.1,0.5-1.2,0.7-2.7-0.4
			l0,0c-0.4-0.3-1.5-1.9-0.4-4.3C16.3,34,18.1,34.5,18.1,34.5L18.1,34.5z"/>
		<path class="st10" d="M19,24.9c0,0,0.6,3.2-1.5,6.2c-0.2,0.3-0.4,0.7-0.6,1c-1.1,2.4-0.1,3.9,0.4,4.3l0,0
			c-0.2-0.1-0.3-0.2-0.5-0.4l0,0l0,0c-0.2-0.2-0.5-0.6-0.8-0.9c-0.1-0.2-0.2-0.3-0.3-0.4l0,0c-0.2-0.3-0.3-0.7-0.3-1.1l0,0
			c0-2,1.6-3.6,2.5-4.7C18.4,28,19.1,26.4,19,24.9L19,24.9z"/>
		<path class="st7" d="M20,37.3c-1.3,0.7-2.9-1.1-3.1-1.2c0.2,0.2,0.3,0.2,0.5,0.4c1.5,1.2,2.6,0.9,2.7,0.4c0.1,0.5,1.1,0.7,2.7-0.4
			c0,0,0,0,0.1-0.1c0.2-0.1,0.2-0.2,0.4-0.4C23,36.2,21.3,38,20,37.3z"/>
		<path class="st10" d="M16.8,36.1c0.2,0.2,1.8,2,3.1,1.2c1.3,0.7,2.9-1.1,3.1-1.2l0,0c-1.2,2-3.2,2.1-3.2,2.1S18.1,38,16.8,36.1
			L16.8,36.1z"/>
		<path class="st6" d="M18.1,34.5c0,0-1.7-0.5-1.1-2.4c0.2-0.3,0.3-0.7,0.6-1c2-3,1.5-6.2,1.5-6.2l0,0c-0.1-1.2-0.7-2.3-2.1-2.8
			c-0.6-0.2-1.1-0.2-1.5-0.2c0.8-0.1,4.1-0.2,4.3,3.6c0.3,4.3-1.2,7.2-1.5,8.5C18.1,34.2,18.1,34.3,18.1,34.5L18.1,34.5z"/>
		<path class="st1" d="M16.3,25.2l0.4,0.1c0,0-0.2,1.1-1.2,0.9s-0.7-1.3-0.7-1.3h0.6c0,0-0.2,0.7,0.2,0.7
			C16.1,25.7,16.3,25.2,16.3,25.2z"/>
		<path class="st6" d="M14.1,31.6c0-0.1-0.1-0.2-0.1-0.3l0,0c0-0.1,0-1.4-0.6-3c-0.5-1.6-0.2-2.4-0.2-2.4c0,0.2,0,0.5,0.2,0.8
			c0.8,1.1,2.5,1.2,2.2,3.4c-0.4,2.1-0.8,2.7-0.4,4C14.7,33.2,14.3,32.3,14.1,31.6z"/>
		<path class="st9" d="M13.3,25.8c0.1-0.5,0.7-0.8,0.7-0.8l0,0c0,0,0.2,0.2,0.4,0.6c0.2,0.3,0.5,1.1,1.9,1.1
			c0.9-0.1,1.1,0.4,1.1,0.4s0,0.7-0.5,2c-0.4,1.1-1.6,2.9-1.5,4.5l0,0c0,0.4,0.1,0.8,0.3,1.1l0,0c-0.2-0.2-0.2-0.4-0.4-0.6
			c-0.4-1.2,0-1.9,0.4-4c0.4-2.2-1.3-2.4-2.2-3.4C13.3,26.4,13.2,26.1,13.3,25.8z"/>
		<path class="st8" d="M12.9,24.9c-0.1-0.1-0.1-0.3,0-0.6c0.2-0.6,0.4-1.3,1.1-1.8c0.3-0.3,0.7-0.5,1.3-0.6h0.1
			c0.4-0.1,0.9,0,1.5,0.2c1.5,0.5,2,1.6,2.1,2.8c0.1,1.5-0.6,3.1-1.1,3.8c-0.8,1.1-2.5,2.8-2.5,4.7c-0.1-1.6,1.1-3.4,1.5-4.5
			c0.5-1.4,0.5-2,0.5-2s0.2-1.8-1-2.2c-1.2-0.3-2.4,0.2-2.4,0.2l0,0C13.8,25,13.1,25.3,12.9,24.9z"/>
		<path class="st9" d="M15.2,22c-0.5,0.1-1,0.3-1.3,0.6c0,0,1.6-2.4,6.1-0.8c4.4-1.5,6.1,0.8,6.1,0.8c-0.3-0.2-0.7-0.5-1.2-0.6l0,0
			l0,0l0,0l0,0c-0.6-0.1-4.2-0.5-4.4,3.6c-0.3,4.4,1.2,7.3,1.5,8.6c-0.1-0.3-0.3-0.5-0.5-0.7c-0.5-0.2-1.3-0.2-1.3-0.2
			s-0.9-0.1-1.3,0.2c-0.2,0.1-0.4,0.3-0.5,0.6c0.3-1.3,1.8-4.1,1.5-8.5c-0.2-3.8-3.5-3.7-4.3-3.6C15.3,22,15.3,22,15.2,22z"/>
		<path class="st7" d="M14.8,24.9c0,0-0.4,1.1,0.7,1.3c1,0.2,1.2-0.9,1.2-0.9l-0.4-0.1c0,0-0.2,0.6-0.6,0.5s-0.2-0.7-0.2-0.7
			L14.8,24.9L14.8,24.9z M16.3,26.6c-1.4,0.2-1.7-0.7-1.9-1.1c-0.2-0.3-0.4-0.6-0.4-0.6s1.1-0.6,2.4-0.2c1.2,0.3,1,2.2,1,2.2
			S17.2,26.5,16.3,26.6z"/>
		<path class="st7" d="M13.9,22.6c-0.6,0.5-0.9,1.2-1.1,1.8c-0.1,0.2-0.1,0.4,0,0.6c-0.2-0.2-0.1-0.6-0.1-0.8
			c-0.1,0-0.1-0.1-0.2-0.1c0-0.2,0.5-0.7,0.1-0.6c0-0.2,0.2-0.4,0.2-0.5c-0.1-0.1-0.2-0.1-0.2-0.1c0-0.3,0.5-0.4,0.5-0.7
			c-0.1,0-0.2-0.1-0.3-0.1c0.1-0.2,0.3-0.2,0.5-0.4c-0.1-0.1-0.2-0.1-0.3-0.2c0.2-0.1,0.5-0.2,0.7-0.2c-0.2-0.2,0.1-0.2,0.2-0.3
			c0.1,0.1,0.2,0,0.2-0.1c-0.1-0.1-0.2-0.2-0.3-0.2v-0.1c0.2-0.1,0.7-0.1,0.8-0.2c-0.2-0.1-0.3,0-0.4-0.2c0.2-0.2,0.7-0.2,1-0.2
			c-0.2-0.1-0.7,0-0.7-0.2c0.6,0,1.1-0.2,1.6-0.2c-0.1-0.1-0.3-0.2-0.4-0.3c0.3,0,0.7,0,1-0.1c-0.2-0.1-0.2-0.2-0.2-0.2
			c0.2,0,0.5,0,0.7,0c-0.1,0-0.2-0.1-0.3-0.2c0.2,0,0.4,0,0.7,0c-0.1-0.1-0.2-0.2-0.2-0.3c0.2,0,0.5,0.1,0.7,0.2
			c-0.1-0.1-0.1-0.2-0.1-0.2c0.2,0,0.3,0.1,0.4,0.2c0-0.1,0-0.2,0-0.2c0.2,0,0.3,0.2,0.5,0.2c0-0.2,0-0.3,0.1-0.5
			c0.2,0.1,0.3,0.2,0.5,0.3c0-0.1,0.1-0.2,0.1-0.2c0.1,0.1,0.1,0.2,0.2,0.3C20,18.1,20,18,20,17.8c0.1,0.2,0.1,0.6,0.2,0.7
			c0.1-0.2,0.1-0.5,0.2-0.7c0.1,0.2,0.1,0.4,0.2,0.5c0.1-0.1,0.1-0.2,0.2-0.3c0,0.1,0.1,0.2,0.1,0.2c0.2-0.1,0.3-0.2,0.5-0.3
			c0,0.2,0.1,0.3,0.1,0.5c0.2-0.1,0.3-0.2,0.5-0.2c0,0.1,0,0.2,0,0.2c0.2-0.1,0.2-0.2,0.4-0.2c0,0.1,0,0.2-0.1,0.2
			c0.2-0.1,0.5-0.2,0.7-0.2c0,0.1-0.1,0.2-0.2,0.3c0.2,0,0.4,0,0.7,0c-0.1,0.1-0.2,0.2-0.3,0.2c0.2,0.1,0.5,0,0.7,0
			c0,0.2-0.1,0.2-0.2,0.2c0.2,0.1,0.7,0.1,1,0.1c-0.1,0.2-0.3,0.2-0.4,0.3c0.6,0.1,1.1,0.2,1.6,0.2c0,0.2-0.6,0.2-0.7,0.2
			c0.3,0,0.7,0.1,1,0.2c-0.1,0.1-0.2,0.1-0.4,0.2c0.2,0.2,0.6,0.2,0.8,0.2v0.1c-0.2,0.1-0.2,0.1-0.3,0.2c0.1,0.1,0.2,0.2,0.2,0.1
			c0.2,0.1,0.5,0.2,0.2,0.3c0.2,0.1,0.5,0.2,0.7,0.2c-0.1,0.1-0.2,0.2-0.3,0.2c0.2,0.2,0.4,0.2,0.5,0.4c-0.1,0.1-0.2,0.1-0.3,0.1
			c0,0.3,0.5,0.4,0.5,0.7c-0.1,0-0.2,0-0.2,0.1c0.1,0.2,0.2,0.3,0.2,0.5c-0.4-0.1,0.1,0.4,0.1,0.6c-0.1,0-0.1,0.1-0.2,0.1
			c-0.1,0.2,0.2,0.7-0.1,0.8c0.1-0.1,0.1-0.3,0-0.6c-0.2-0.6-0.4-1.3-1.1-1.8c0,0-1.6-2.4-6.1-0.8C15.5,20.2,13.9,22.6,13.9,22.6z"
			/>
		<path class="st7" d="M11.3,27.8c0-0.5,0.1-0.8,0.2-1.2c-0.1,0-0.2,0.1-0.2,0.2c-0.1-0.4,0-1.1,0.2-1.5c0,0.2-0.1,0.7,0,0.9
			c0.1-0.1,0.3-0.5,0.4-0.5c0,0.2-0.2,0.3-0.1,0.6c0.2-0.1,0.2-0.2,0.4-0.2c-0.1,0.3-0.4,0.6-0.2,0.9c0.2-0.2,0.4-0.2,0.6-0.1
			c-0.2,0.2-0.4,0.6-0.4,0.9c0.2-0.1,0.2-0.3,0.5-0.2c-0.1,0.2-0.1,0.4-0.1,0.6c0.1-0.1,0.2-0.1,0.3-0.1c-0.1,0.2-0.2,0.3-0.1,0.6
			c0.1-0.1,0.2-0.1,0.4-0.1C13.2,28.8,13,29,13,29.3c0.1-0.1,0.2-0.2,0.3-0.2c0,0.4-0.2,0.8-0.2,1.2c0.1-0.2,0.1-0.7,0.4-0.7l0,0
			c0,0,0.1,0.7,0.4,1.6l0,0c0,0.1,0.1,0.2,0.1,0.3c0,0.1,0,0.2,0,0.2c-0.3-0.2-0.6-0.3-0.7-0.7c-0.2,0.2-0.2,0.4-0.2,0.6
			c-0.1-0.2-0.2-0.3-0.2-0.5c-0.1,0-0.2,0.2-0.2,0.2c-0.2-0.2-0.2-0.6-0.4-0.9c-0.1,0.1-0.1,0.2-0.2,0.3c-0.2-0.5-0.4-0.9-0.4-1.5
			c-0.1,0.1-0.2,0.2-0.2,0.2c0-0.2-0.1-0.3-0.2-0.5c0-0.2,0.1-0.5,0.1-0.7c-0.2,0-0.2,0.2-0.3,0.3c0.1-0.4,0.1-0.8,0.3-1.2
			C11.5,27.6,11.4,27.7,11.3,27.8L11.3,27.8z"/>
		<path class="st3" d="M11.2,18.1c0.2,0,0.4-0.2,0.6-0.2c0,0.1-0.1,0.2-0.2,0.2c-0.2-0.1-0.7-0.2-0.8-0.2c0.2-0.1,0.7-0.2,0.8-0.2
			C11.5,17.9,11.4,18,11.2,18.1z"/>
		<path class="st5" d="M10.6,26.1c0,0-0.2,0.2-0.2,0.2c0-0.4,0.1-0.7,0.1-1.1c-0.2,0-0.2,0.2-0.4,0.2c0-0.3,0.2-0.6,0.2-0.9
			c-0.2,0.1-0.4,0.2-0.6,0.2c0.1-0.2,0.4-0.6,0.7-0.8c-0.2,0-0.7,0.1-1,0c0.3-0.1,0.7-0.4,1-0.5c-0.3-0.1-1.1,0-1.3-0.5
			C9.3,23,9.6,23,9.9,23c0.3-0.1,0.7-0.2,0.8-0.7c-0.2,0-0.4-0.1-0.7-0.1c0.3,0,0.4-0.2,0.7-0.3c-0.4,0.1-0.7-0.2-1-0.2
			c0.4,0,0.7-0.2,1.1-0.4c-0.2,0-0.4,0-0.7,0c0.4-0.1,1-0.1,1.1-0.5c-0.2,0.2-0.6,0.2-0.7,0.2c0.2,0,0.3-0.2,0.4-0.2
			c0.1-0.1,0.2-0.2,0.3-0.3c-0.2,0.1-0.5,0.1-0.7,0.2c0.1,0,0.2-0.1,0.3-0.2c0.1-0.1,0.2-0.2,0.3-0.3c-0.2,0-0.2,0-0.4,0
			c0.2-0.1,0.4-0.2,0.6-0.3c-0.1-0.1-0.2-0.1-0.4-0.1c0.1,0,0.4-0.1,0.5-0.2c0.2-0.2-0.2-0.2-0.3-0.4c0.2,0,0.3,0,0.4-0.1
			c-0.2-0.2-0.6-0.3-0.7-0.5c0.2,0.1,0.6,0.2,0.8,0.2c-0.2-0.2-0.7-0.4-0.8-0.8l0,0c0.2,0.2,0.6,0.2,0.8,0.2
			c-0.1,0.1-0.1,0.2-0.2,0.2c0.3,0,0.6-0.4,0.9-0.5c-0.2,0.2-0.4,0.2-0.5,0.4c0.2-0.1,0.7-0.2,0.8-0.2c-0.2,0.2-0.7,0.5-0.7,0.7
			c0.3-0.2,0.7-0.5,1.1-0.6c-0.2,0.2-0.4,0.4-0.4,0.6c0.3-0.1,0.6-0.4,0.8-0.5c-0.1,0.2-0.3,0.2-0.4,0.5c0.2-0.1,0.4-0.2,0.7-0.2
			c0.1,0.2,0.4,0.1,0.1,0.3c-0.2,0.1-0.4,0.2-0.6,0.2c0.2,0.2,0.3,0.1,0.5,0.2c-0.2,0.1-0.5,0.2-0.6,0.3c0.1,0.1,0.2,0.1,0.2,0.1
			c-0.2,0.2-0.4,0.2-0.7,0.3c0.1,0,0.2,0.1,0.4,0.1c-0.2,0.1-0.5,0.3-0.7,0.5c0.1,0,0.2,0.1,0.2,0.1c-0.2,0.1-0.6,0.2-0.7,0.3
			c0.1,0,0.2,0.1,0.2,0.1c-0.1,0.2-0.3,0.2-0.4,0.4c0.1,0.1,0.2,0.1,0.2,0.1c-0.2,0.2-0.5,0.5-0.7,0.7c0.2,0,0.2,0,0.3,0
			c-0.2,0.2-0.6,0.7-0.6,1c0.2,0,0.3-0.1,0.5-0.1c-0.1,0.3-0.4,0.5-0.5,0.8c0.1,0.1,0.2,0,0.3-0.1c0,0.6-0.3,1-0.3,1.6
			c0.1,0,0.2-0.1,0.3-0.2c-0.2,0.4-0.3,1.1-0.2,1.5c0.1-0.1,0.2-0.2,0.2-0.2c-0.2,0.4-0.2,0.7-0.2,1.2c0-0.2-0.2-0.7-0.3-1
			c-0.1,0.1-0.2,0.2-0.2,0.2C10.7,26.8,10.6,26.5,10.6,26.1z"/>
		<path class="st4" d="M6.5,9.2c0.2,0,0.3,0.1,0.6,0C7,8.9,6.7,8.9,6.5,8.7c0.1,0,0.2,0,0.3,0C6.7,8.6,6.5,8.7,6.3,8.6
			c0.1,0,0.2,0,0.2,0C6.5,8.5,6.3,8.5,6.1,8.5C6.4,8.1,6.8,8,7.4,8.1c0.6,0.1,1.5,0.6,1.8,1.1H9.1c0.4,0.7,1.5,0.9,2.1,1.4
			c-0.1,0-0.2,0-0.2,0c0.6,0.7,1.4,1,2.1,1.5c-0.1-0.1-0.2-0.1-0.3-0.1c0.2,0.4,0.8,0.6,1,1c-0.2-0.1-0.3-0.1-0.6-0.1
			c0.2,0.4,0.8,0.5,1.1,0.8c-0.1,0-0.2,0-0.3,0c0.3,0.2,0.7,0.4,1,0.7c-0.1,0-0.2,0-0.2,0c0.2,0.2,0.5,0.5,0.7,0.7
			c-0.1,0-0.2,0-0.2,0c0.2,0.3,0.6,0.7,0.9,0.8l0,0c-0.2-0.1-0.4-0.1-0.6-0.2c0,0.2,0.2,0.3,0.4,0.5c-0.1,0-0.2,0-0.3,0
			c0.1,0.2,0.2,0.2,0.2,0.4c-0.1,0-0.2,0-0.2,0c0,0.1,0,0.2,0,0.3c-0.1,0-0.2,0-0.2,0c0,0.2,0,0.2,0,0.4c-0.1,0-0.2,0-0.3,0
			c0,0.2-0.1,0.5-0.2,0.6c-0.2,0-0.2,0.1-0.4,0.1c0.2,0.1,0.3,0.1,0.5,0.2c-0.2,0.1-0.6,0.1-0.8,0.2c0,0.2,0.2,0.2,0.3,0.2
			c-0.2,0.1-0.4,0.2-0.6,0.2l0,0c-0.2,0-0.4,0.2-0.7,0.2c0.1-0.2,0.2-0.3,0.4-0.5c-0.2,0.2-0.5,0.5-0.8,0.5c0-0.2,0.2-0.5,0.4-0.6
			c-0.3,0-0.7,0.4-1.1,0.6c0.1-0.3,0.5-0.5,0.7-0.7c-0.2,0-0.7,0.1-0.8,0.2c0.1-0.2,0.3-0.2,0.5-0.4c-0.3,0.1-0.5,0.5-0.9,0.5
			c0.1-0.1,0.1-0.1,0.2-0.2s0.1-0.2,0.2-0.2c-0.2,0-0.4,0.2-0.6,0.2c0.2-0.1,0.3-0.2,0.4-0.2c-0.2-0.1-0.6,0.1-0.8,0.2l0,0l0,0
			c-0.1,0-0.2,0-0.2,0.1c-0.2,0-0.3,0.1-0.5,0.1c0.2-0.2,0.6-0.3,0.8-0.6c0.2-0.2,0.5-0.3,0.7-0.5c-0.4,0.2-0.7,0.2-1.1,0.3
			c-0.1,0-0.2,0.1-0.3,0.1c0.2-0.2,0.7-0.2,1-0.4c-0.4,0.1-0.8,0.2-1.2,0.2c0.3-0.2,0.6-0.3,0.9-0.5c-0.2,0-0.4,0-0.7,0
			c-0.3,0-0.9,0.1-1.1,0c0.2-0.1,0.5-0.1,0.7-0.2c0.3-0.1,0.7-0.2,1-0.2c-0.4,0-0.9,0.1-1.2-0.1c0.4-0.2,0.8-0.2,1.2-0.2
			c-0.3-0.1-0.7,0-1.1-0.1c0,0-0.2-0.1-0.2-0.1c0-0.2,1-0.2,1.2-0.4c-0.3,0-0.7,0-1.1,0c-0.2,0-0.2,0.1-0.4,0.1
			c0.2-0.4,1-0.3,1.4-0.5C10.3,15,9.9,15.1,9.5,15c0.3-0.2,1.1-0.2,1.4-0.5c-0.3,0-0.8,0.2-1.1,0.2c0.2-0.2,0.7-0.3,0.9-0.7
			c-0.2,0-0.6,0.1-0.8,0.2c0.1-0.3,0.7-0.5,0.7-0.8c-0.2,0-0.7,0.3-0.9,0.4c0.1-0.3,0.6-0.6,0.9-0.8c-0.6,0-0.9,0.1-1.1,0.2
			c0.2-0.1,0.4-0.2,0.6-0.2c-0.3,0-0.7,0-1.1-0.1c0.2,0,0.5-0.1,0.7-0.2c-0.2-0.1-0.3-0.1-0.4-0.1c-0.2,0-0.5-0.1-0.8-0.2
			c-0.2,0-0.3,0-0.5-0.1c0.4,0,0.8,0,1.2-0.2c-0.2-0.3-1.1-0.1-1.4-0.2C7.8,12,8.1,12,8.3,11.9c-0.2,0-0.5,0.1-0.7,0.2
			c0.2-0.2,0.4-0.3,0.5-0.6c-0.3-0.1-0.6,0.1-0.7,0.2c0.1-0.2,0.2-0.2,0.3-0.4c0.1-0.1,0.1-0.2,0.2-0.3c-0.1-0.1-0.3-0.1-0.6-0.1
			c0.1,0,0.2-0.1,0.2-0.1c-0.2-0.2-0.6-0.2-0.7-0.2c0.2,0,0.5,0,0.7,0c-0.1-0.3-0.7-0.3-0.8-0.5c0.2,0.1,0.7,0.2,0.9,0
			C7.1,9.6,6.5,9.8,6.1,9.4c0.4,0.1,0.7,0,1.1,0.1C7,9.4,6.6,9.3,6.5,9.2z"/>
		<path class="st3" d="M6.1,10.8C6.1,10.2,5.8,9.6,6,8.9c0.1-0.2,0.1-0.3,0.2-0.4c0.2,0,0.3,0,0.4,0.1c-0.1,0.1-0.2,0.1-0.2,0
			c0.2,0.1,0.4,0,0.5,0.2c-0.1,0-0.2,0-0.3,0C6.6,8.9,6.9,8.9,7,9.2c-0.2,0.1-0.3,0-0.5,0C6.6,9.3,7,9.4,7.3,9.6
			C7,9.5,6.5,9.6,6.1,9.5c0.4,0.4,1.1,0.2,1.4,0.6c-0.3,0-0.7-0.1-0.9-0.1c0.2,0.2,0.8,0.2,0.9,0.5c-0.2,0-0.5,0-0.7,0
			c0.2,0.2,0.6,0.1,0.7,0.2c-0.2,0-0.2,0-0.3,0.1c-0.1,0-0.2,0-0.2,0c0.1,0,0.2,0,0.2,0c0.2,0,0.4,0,0.6,0.1
			c-0.1,0.1-0.1,0.2-0.2,0.3c-0.1,0.2-0.2,0.2-0.3,0.4c0.2-0.1,0.5-0.2,0.7-0.2c-0.1,0.2-0.4,0.3-0.5,0.5c0.2-0.1,0.4-0.2,0.7-0.1
			C8.1,12,7.8,12,7.6,12.1C8,12.2,8.8,12,9.1,12.3c-0.4,0.2-0.9,0.2-1.3,0.2c0.2,0.1,0.3,0.1,0.5,0.1c0.2,0.1,0.5,0.1,0.8,0.2
			c0.1,0,0.2,0,0.3,0.1C9.2,13,8.9,13,8.8,13c0.3,0.2,0.7,0.1,1.1,0.1c-0.2,0.1-0.3,0.2-0.5,0.2c0.2-0.1,0.6-0.2,0.9-0.2
			C10,13.4,9.4,13.6,9.3,14c0.2-0.2,0.7-0.5,0.9-0.4c0,0.3-0.6,0.5-0.7,0.8c0.2-0.1,0.6-0.2,0.8-0.2c-0.2,0.2-0.6,0.4-0.9,0.7
			c0.3-0.1,0.7-0.2,1.1-0.2c-0.3,0.3-1.1,0.2-1.4,0.5c0.4,0.1,0.9,0.1,1.2,0.2c-0.3,0.2-1.1,0.1-1.4,0.5c0.2,0,0.2-0.1,0.4-0.1
			c0.3,0,0.7,0,1.1,0c-0.2,0.1-1.2,0.2-1.2,0.4c0,0,0.2,0.1,0.2,0.1c0.3,0.1,0.7,0.1,1.1,0.1c-0.4,0.1-0.8,0.1-1.2,0.2
			c0.3,0.1,0.9,0.1,1.2,0.1c-0.3,0.1-0.7,0.2-1,0.2c-0.2,0.1-0.5,0.1-0.7,0.2c0.2,0.2,0.8,0,1.1,0c0.2,0,0.4,0,0.7,0
			c-0.3,0.2-0.6,0.3-0.9,0.5c0.4,0,0.8-0.2,1.2-0.2c-0.3,0.2-0.7,0.2-1,0.4c0.2,0,0.2-0.1,0.3-0.1c0.4-0.1,0.8-0.2,1.1-0.3
			c-0.1,0.1-0.4,0.2-0.6,0.4c-0.2,0.2-0.7,0.3-0.8,0.6c0.2,0,0.3-0.1,0.5-0.1c0.1,0,0.1,0,0.2-0.1c0.1,0.4,0.6,0.6,0.8,0.8
			c-0.2,0-0.6-0.1-0.8-0.2c0.2,0.2,0.5,0.3,0.7,0.5c-0.2,0.1-0.3,0-0.4,0.1c0.1,0.2,0.5,0.2,0.3,0.4c-0.1,0.1-0.4,0.1-0.5,0.2
			c0.2,0.1,0.2,0,0.4,0.1c-0.3,0-0.5,0.2-0.7,0.2c0.2,0,0.2,0,0.4,0c-0.1,0.1-0.2,0.2-0.3,0.3c-0.4,0-0.8-0.3-1.1-0.7
			c0,0.2,0,0.2,0,0.4c-0.3,0-0.5-0.5-0.6-0.7c0,0.2-0.1,0.3-0.1,0.4c-0.5-0.3-0.8-1.2-0.9-1.7C8,18.5,8,18.7,7.9,18.9
			c-0.2-0.3-0.2-1.3-0.1-1.7c-0.1,0.1-0.2,0.2-0.2,0.4c0-0.4,0-0.7,0.2-1.1c-0.2,0.1-0.2,0.2-0.4,0.2c0-0.2,0.2-0.3,0.2-0.5
			S7.2,15.9,7,15.9c0.1,0,0.2,0,0.3,0.1C7.2,15.6,7,15.1,7,14.8c0.2,0,0.4,0.1,0.6,0.2c-0.2-0.4-0.9-0.7-1-1.2
			c0.2,0.1,0.5,0.2,0.7,0.3c-0.2-0.2-0.2-0.4-0.4-0.6c-0.2-0.2-0.4-0.4-0.4-0.7c0.2,0.2,0.4,0.3,0.7,0.3c-0.2-0.2-0.3-0.4-0.5-0.7
			c-0.1-0.2-0.3-0.7-0.3-0.9c0.1,0.1,0.2,0.3,0.4,0.2C6.5,11.4,6.3,11.1,6.1,10.8z"/>
		<path class="st2" d="M6.1,10.8c0.2,0.3,0.3,0.7,0.5,1c-0.2,0-0.2-0.2-0.4-0.2c0.1,0.2,0.3,0.7,0.4,0.9c0.1,0.2,0.3,0.4,0.5,0.7
			c-0.2,0-0.5-0.2-0.7-0.3c0,0.2,0.3,0.5,0.4,0.7C7,13.6,7.1,13.8,7.3,14c-0.2,0-0.4-0.2-0.7-0.2c0.1,0.5,0.8,0.8,1,1.2
			c-0.2-0.1-0.4-0.2-0.6-0.2c0,0.3,0.2,0.8,0.3,1.1c-0.1-0.1-0.2-0.1-0.2-0.1c0.1,0.2,0.3,0.2,0.3,0.5c0,0.2-0.2,0.2-0.2,0.5
			c0.2,0,0.2-0.2,0.4-0.2c-0.2,0.3-0.2,0.7-0.2,1.1c0.1-0.2,0.2-0.3,0.2-0.4c-0.1,0.4-0.2,1.4,0.1,1.7c0.2-0.2,0.2-0.5,0.4-0.7
			c0.1,0.6,0.4,1.5,0.9,1.7c0.1-0.2,0.1-0.3,0.1-0.4c0.1,0.2,0.2,0.7,0.6,0.7c0-0.2,0-0.2,0-0.4c0.2,0.3,0.6,0.7,1.1,0.7
			c-0.1,0.1-0.2,0.2-0.3,0.2c0.2,0,0.6,0,0.7-0.2c-0.1,0.2-0.2,0.2-0.3,0.3c-0.1,0.2-0.2,0.2-0.4,0.2c0.2,0.1,0.6-0.1,0.7-0.2
			c-0.2,0.4-0.7,0.4-1.1,0.5c0.2,0,0.4,0,0.7,0c-0.3,0.2-0.7,0.4-1.1,0.4c0.3,0,0.7,0.3,1,0.2c-0.2,0.1-0.4,0.4-0.7,0.3
			c0.2,0,0.4,0.1,0.7,0.1c-0.1,0.4-0.4,0.6-0.8,0.7V23c-0.7-0.9-1.3-1.9-2-2.8C7,19.1,7,17.8,6.5,16.7c-0.2-0.4-0.2-0.8-0.3-1.2
			c0-0.9-0.1-1.7-0.1-2.6C6.2,12.1,6.2,11.4,6.1,10.8L6.1,10.8z"/>
		<path class="st1" d="M6.3,15.4c-0.2-1.1-0.2-2.4-0.5-3.5c-0.2-0.5-0.2-1.1-0.2-1.7h0.2c0.2,0.2,0.2,0.4,0.4,0.6c0,0,0,0,0,0.1
			c0.1,0.7,0.1,1.3,0.1,2C6.2,13.6,6.3,14.5,6.3,15.4z"/>
		<path class="st1" d="M6,8.9c-0.2,0.7,0.1,1.3,0.2,1.9c-0.1-0.2-0.2-0.4-0.4-0.7H5.6c0-0.8,0.1-1.6,0.2-2.2C6,7.4,6.3,6.7,7,6.8
			c0.8,0.1,1.7,0.8,2.4,1.3c0.5,0.4,1.1,0.8,1.6,1.2c0.2,0.2,0.6,0.3,0.8,0.6c0.2,0.2,0.3,0.4,0.6,0.6c0,0,0-0.1,0.1-0.1
			c0.2,0.1,1,1.1,1.1,0.6c0.1,0.2,0.3,0.4,0.5,0.5c0-0.2,0-0.3,0-0.5c0.6,1,1.2,2,1.8,2.9c0.6,0.9,1.2,1.7,2.1,2.4
			c0.1,0.1,0.2,0.2,0.2,0.3c-0.2,0-0.5-0.2-0.8-0.2c0.1,0.1,0.2,0.2,0.2,0.3c-0.2,0-0.4-0.1-0.7-0.1c0,0,0.1,0.2,0.2,0.2
			c-0.2,0.1-0.6,0-0.8,0.1c0.2,0.1,0.3,0.2,0.4,0.2c-0.2,0-0.5-0.1-0.7-0.2c0.1,0.1,0.1,0.2,0.2,0.2c-0.2-0.1-0.4-0.1-0.6-0.2
			c0,0.1,0.1,0.2,0.2,0.2c-0.2,0-0.2,0-0.4,0c0.1,0.1,0.1,0.2,0.2,0.2c-0.2,0-0.3,0-0.5,0c0.1,0.1,0.2,0.2,0.2,0.2
			c-0.2,0-0.3,0.1-0.5,0.1c0.2-0.1,0.2-0.3,0.2-0.6c0.1,0.1,0.2,0,0.3,0c0-0.2,0-0.2,0-0.4c0.1,0,0.2,0,0.2,0c0-0.1,0-0.2,0-0.3
			c0.1,0,0.2,0,0.2,0c0-0.2-0.2-0.2-0.2-0.4c0.1,0,0.2,0,0.3,0c-0.2-0.2-0.4-0.2-0.4-0.5c0.2,0.1,0.4,0.2,0.6,0.2l0,0
			c-0.4-0.2-0.7-0.5-0.9-0.8c0.1,0,0.2,0,0.2,0c-0.2-0.2-0.4-0.5-0.7-0.7c0.1,0,0.1,0,0.2,0c-0.2-0.2-0.7-0.5-1-0.7
			c0.1,0,0.2-0.1,0.3,0c-0.2-0.4-0.8-0.4-1.1-0.8c0.2,0,0.4,0,0.6,0.1c-0.2-0.4-0.7-0.6-1-1c0.2,0,0.2,0,0.3,0.1
			c-0.6-0.2-1.5-0.4-2-1.1c0.1,0,0.2,0,0.2,0c-0.7-0.5-1.7-0.7-2-1.4h0.1c-0.4-0.5-1.3-1-1.9-1.1c-0.6-0.1-1,0-1.2,0.4
			C6.1,8.6,6.1,8.7,6,8.9z"/>
	</g>
</g>
</svg>
